<?xml version="1.0" encoding="UTF-8"?>
<svg id="svg637" width="51.5mm" height="129.5mm" version="1.1" viewBox="-.5 -.5 51.5 129.5" xmlns="http://www.w3.org/2000/svg">
  <defs id="defs302">
    <radialGradient id="id1">
      <stop id="stop3" stop-color="#fff" offset="0"/>
      <stop id="stop5" stop-color="red" offset="1"/>
    </radialGradient>
    <linearGradient id="id8" x1=".70711" x2="0" y2=".70711">
      <stop id="stop38" stop-color="#666" offset="0"/>
      <stop id="stop40" stop-color="#191919" offset="1"/>
    </linearGradient>
    <radialGradient id="id9">
      <stop id="stop43" offset=".70297"/>
      <stop id="stop45" stop-opacity="0" offset=".95108"/>
    </radialGradient>
    <linearGradient id="id10" x1=".70711" x2="0" y2=".70711">
      <stop id="stop48" stop-color="#666" offset="0"/>
      <stop id="stop50" stop-color="#686868" offset=".04"/>
      <stop id="stop52" stop-color="#212121" offset="1"/>
    </linearGradient>
    <linearGradient id="id11" x1=".70711" x2="0" y2=".70711">
      <stop id="stop55" stop-color="#777" offset="0"/>
      <stop id="stop57" stop-color="#555" offset="1"/>
    </linearGradient>
    <linearGradient id="id12" x1=".70711" x2="0" y2=".70711">
      <stop id="stop60" stop-color="#e25f62" offset="0"/>
      <stop id="stop62" stop-color="#d23e3e" offset="1"/>
    </linearGradient>
    <radialGradient id="id14">
      <stop id="stop70" offset=".65385"/>
      <stop id="stop72" stop-opacity="0" offset=".88462"/>
    </radialGradient>
    <linearGradient id="id17" x1=".70711" x2="0" y2=".70711">
      <stop id="stop87" stop-color="#fff" offset="0"/>
      <stop id="stop89" stop-color="#ccc" offset="1"/>
    </linearGradient>
    <linearGradient id="id28" x1="1" x2="0" y2="1">
      <stop id="stop146" stop-color="#fff" offset="-1"/>
      <stop id="stop148" offset="2"/>
    </linearGradient>
    <radialGradient id="id29">
      <stop id="stop151" offset=".7594"/>
      <stop id="stop153" stop-color="#fff" offset=".8797"/>
      <stop id="stop155" stop-color="#444" offset="1"/>
    </radialGradient>
    <radialGradient id="id30" cx=".8" cy=".35" r=".6">
      <stop id="stop158" stop-color="#eee" offset="0"/>
      <stop id="stop160" stop-color="#111" offset="1"/>
    </radialGradient>
    <radialGradient id="id35">
      <stop id="stop185" offset=".74603"/>
      <stop id="stop187" stop-color="#fff" offset=".87302"/>
      <stop id="stop189" stop-color="#444" offset="1"/>
    </radialGradient>
    <linearGradient id="id36" x1="1" x2="0" y2="1">
      <stop id="stop192" offset="0"/>
      <stop id="stop194" stop-color="#333" offset="1"/>
    </linearGradient>
  </defs>
  <rect id="background" width="50.5" height="128.5" fill="#fff"/>
  <g id="outline" fill="none" stroke="#000">
    <rect id="rect305" x="-.25" y="-.25" width="51" height="129" stroke-width=".5"/>
  </g>
  <g id="stencil" font-family="Ubuntu" font-size="3">
    <path id="path1459" d="m22.303 4.85q0.08 0.1 0.2 0.265 0.125 0.16 0.255 0.36 0.13 0.195 0.255 0.41 0.13 0.215 0.22 0.415h-0.53q-0.1-0.19-0.22-0.385-0.115-0.195-0.235-0.37-0.12-0.18-0.24-0.335-0.115-0.155-0.21-0.27-0.065 5e-3 -0.135 5e-3 -0.065 0-0.135 0h-0.435v1.355h-0.485v-3.415q0.205-0.05 0.455-0.065 0.255-0.02 0.465-0.02 0.73 0 1.11 0.275 0.385 0.275 0.385 0.82 0 0.345-0.185 0.59-0.18 0.245-0.535 0.365zm-0.735-1.625q-0.31 0-0.475 0.015v1.305h0.345q0.25 0 0.45-0.025t0.335-0.095q0.14-0.07 0.215-0.195 0.075-0.13 0.075-0.34 0-0.195-0.075-0.325t-0.205-0.205q-0.125-0.075-0.3-0.105-0.17-0.03-0.365-0.03z"/>
    <path id="path1461" d="m26.128 6.3q-0.11-0.185-0.255-0.415-0.14-0.23-0.305-0.475-0.165-0.25-0.345-0.505-0.175-0.255-0.35-0.49-0.175-0.24-0.34-0.45t-0.305-0.37v2.705h-0.475v-3.465h0.385q0.235 0.25 0.5 0.585 0.27 0.33 0.53 0.685 0.265 0.35 0.495 0.69 0.235 0.34 0.395 0.605v-2.565h0.475v3.465z"/>
    <path id="path1463" d="m29.507 4.595h0.485v1.62q-0.06 0.02-0.175 0.045-0.11 0.025-0.26 0.05-0.145 0.025-0.32 0.04-0.175 0.02-0.355 0.02-0.365 0-0.665-0.12t-0.515-0.35-0.335-0.565q-0.115-0.335-0.115-0.77t0.13-0.77q0.135-0.34 0.36-0.57t0.525-0.35q0.305-0.12 0.65-0.12 0.235 0 0.415 0.03 0.185 0.03 0.315 0.07t0.21 0.08q0.085 0.04 0.115 0.06l-0.155 0.405q-0.145-0.095-0.385-0.155-0.24-0.065-0.49-0.065-0.265 0-0.485 0.095-0.215 0.095-0.37 0.275-0.15 0.18-0.235 0.44-0.085 0.255-0.085 0.575 0 0.31 0.07 0.565 0.075 0.255 0.22 0.44 0.15 0.18 0.365 0.28 0.22 0.1 0.515 0.1 0.21 0 0.355-0.02 0.15-0.025 0.215-0.045z"/>
    <path id="path310" transform="translate(17.75 119.5) scale(.15)" d="m23.274 0c-12.804 0-23.274 10.47-23.274 23.274 0 12.804 10.47 23.274 23.274 23.274 6.2817 0 11.38-2.5486 15.731-6.2455 1.5387-1.3073 3.0762-2.7877 4.6583-4.3876l-0.0086-5.8693-5.9894 0.0026c-1.4839 1.5057-2.8467 2.8283-4.0804 3.8765-3.5126 2.9845-6.0494 4.2541-10.311 4.2541-8.2813 0-14.905-6.6235-14.905-14.905 0-8.2813 6.6235-14.905 14.905-14.905 4.2612 0 6.7981 1.2697 10.311 4.2541 1.2337 1.0482 2.5965 2.3707 4.0804 3.8765l5.9894 0.0026 0.0086-5.8693c-1.5821-1.5999-3.1196-3.0803-4.6583-4.3876-4.351-3.6969-9.4489-6.2455-15.731-6.2455zm53.451 0c-6.2815 1.0197e-4 -11.379 2.5487-15.73 6.2455-1.6075 1.3659-3.2135 2.9188-4.8712 4.602h12.572c2.4765-1.7176 4.7403-2.4782 8.0292-2.4783h3.82e-4c6.2002 0 11.47 3.7129 13.728 9.0545l-6.0416-0.07531-8.5851-3.0797-28.741 3.81e-4v5.6456h-22.686v6.7186h22.686v5.6456l28.741 3.82e-4 8.5851-3.0797 6.0416-0.07531c-2.2576 5.3415-7.5279 9.0545-13.728 9.0545h-3.82e-4c-3.2889-5.9e-5 -5.5527-0.76071-8.0292-2.4783h-12.572c1.6577 1.6832 3.2637 3.2361 4.8712 4.602 4.3509 3.6968 9.4487 6.2454 15.73 6.2455h3.82e-4c12.804 0 23.274-10.47 23.274-23.274-8e-6 -12.804-10.47-23.274-23.274-23.274zm-59.712 19.295-2.8907 3.9786 2.8907 3.9786 4.6773-1.5197v-4.9178z"/>
    <g id="g328" transform="translate(10.01,38.4)">
      <path id="path1466" d="m-1.2745 5.175q-0.219 0-0.399-0.072t-0.309-0.21-0.201-0.339q-0.069-0.204-0.069-0.465t0.078-0.462q0.081-0.204 0.216-0.342t0.315-0.21 0.384-0.072q0.129 0 0.231 0.018 0.105 0.018 0.18 0.042 0.078 0.024 0.126 0.048t0.066 0.036l-0.084 0.24q-0.027-0.018-0.078-0.039t-0.117-0.042q-0.063-0.021-0.141-0.033-0.075-0.015-0.153-0.015-0.165 0-0.297 0.057t-0.225 0.165-0.144 0.264q-0.048 0.153-0.048 0.345 0 0.186 0.042 0.339 0.045 0.153 0.132 0.264 0.087 0.108 0.216 0.168 0.132 0.06 0.306 0.06 0.201 0 0.333-0.042 0.132-0.042 0.198-0.075l0.075 0.24q-0.021 0.015-0.075 0.039-0.054 0.021-0.135 0.042t-0.189 0.036q-0.108 0.015-0.234 0.015z"/>
      <path id="path1468" d="m-0.32649 5.13v-2.28l0.279-0.048v0.798q0.078-0.03 0.165-0.045 0.09-0.018 0.177-0.018 0.186 0 0.309 0.054 0.123 0.051 0.195 0.147 0.075 0.093 0.105 0.225t0.03 0.291v0.876h-0.279v-0.816q0-0.144-0.021-0.246-0.018-0.102-0.063-0.165t-0.12-0.09q-0.075-0.03-0.186-0.03-0.045 0-0.093 6e-3t-0.093 0.015q-0.042 6e-3 -0.078 0.015-0.033 9e-3 -0.048 0.015v1.296z"/>
      <path id="path1470" d="m1.9145 4.929q0.099 0 0.174-3e-3 0.078-6e-3 0.129-0.018v-0.465q-0.03-0.015-0.099-0.024-0.066-0.012-0.162-0.012-0.063 0-0.135 9e-3 -0.069 9e-3 -0.129 0.039-0.057 0.027-0.096 0.078-0.039 0.048-0.039 0.129 0 0.15 0.096 0.21 0.096 0.057 0.261 0.057zm-0.024-1.398q0.168 0 0.282 0.045 0.117 0.042 0.186 0.123 0.072 0.078 0.102 0.189 0.03 0.108 0.03 0.24v0.975q-0.036 6e-3 -0.102 0.018-0.063 9e-3 -0.144 0.018t-0.177 0.015q-0.093 9e-3 -0.186 9e-3 -0.132 0-0.243-0.027t-0.192-0.084q-0.081-0.06-0.126-0.156t-0.045-0.231q0-0.129 0.051-0.222 0.054-0.093 0.144-0.15t0.21-0.084 0.252-0.027q0.042 0 0.087 6e-3 0.045 3e-3 0.084 0.012 0.042 6e-3 0.072 0.012t0.042 9e-3v-0.078q0-0.069-0.015-0.135-0.015-0.069-0.054-0.12-0.039-0.054-0.108-0.084-0.066-0.033-0.174-0.033-0.138 0-0.243 0.021-0.102 0.018-0.153 0.039l-0.033-0.231q0.054-0.024 0.18-0.045 0.126-0.024 0.273-0.024z"/>
      <path id="path1472" d="m2.9525 3.615q0.096-0.024 0.255-0.051t0.366-0.027q0.186 0 0.309 0.054 0.123 0.051 0.195 0.147 0.075 0.093 0.105 0.225t0.03 0.291v0.876h-0.279v-0.816q0-0.144-0.021-0.246-0.018-0.102-0.063-0.165t-0.12-0.09q-0.075-0.03-0.186-0.03-0.045 0-0.093 3e-3t-0.093 9e-3q-0.042 3e-3 -0.078 9e-3 -0.033 6e-3 -0.048 9e-3v1.317h-0.279z"/>
      <path id="path1474" d="m5.3525 5.166q-0.189 0-0.333-0.06-0.141-0.06-0.24-0.168-0.096-0.108-0.144-0.255-0.048-0.15-0.048-0.33t0.051-0.33q0.054-0.15 0.15-0.258 0.096-0.111 0.234-0.171 0.141-0.063 0.312-0.063 0.105 0 0.21 0.018t0.201 0.057l-0.063 0.237q-0.063-0.03-0.147-0.048-0.081-0.018-0.174-0.018-0.234 0-0.36 0.147-0.123 0.147-0.123 0.429 0 0.126 0.027 0.231 0.03 0.105 0.09 0.18 0.063 0.075 0.159 0.117 0.096 0.039 0.234 0.039 0.111 0 0.201-0.021t0.141-0.045l0.039 0.234q-0.024 0.015-0.069 0.03-0.045 0.012-0.102 0.021-0.057 0.012-0.123 0.018-0.063 9e-3 -0.123 9e-3z"/>
      <path id="path1476" d="m5.9825 4.353q0-0.207 0.06-0.36 0.06-0.156 0.159-0.258t0.228-0.153 0.264-0.051q0.315 0 0.483 0.198 0.168 0.195 0.168 0.597 0 0.018 0 0.048 0 0.027-3e-3 0.051h-1.068q0.018 0.243 0.141 0.369t0.384 0.126q0.147 0 0.246-0.024 0.102-0.027 0.153-0.051l0.039 0.234q-0.051 0.027-0.18 0.057-0.126 0.03-0.288 0.03-0.204 0-0.354-0.06-0.147-0.063-0.243-0.171t-0.144-0.255q-0.045-0.15-0.045-0.327zm1.071-0.153q3e-3 -0.189-0.096-0.309-0.096-0.123-0.267-0.123-0.096 0-0.171 0.039-0.072 0.036-0.123 0.096t-0.081 0.138q-0.027 0.078-0.036 0.159z"/>
    </g>
    <g id="g332" transform="translate(35.41,38.4)">
      <path id="path1479" d="m0.83001 1.801v0.252h-0.654v1.827h-0.291v-1.827h-0.654v-0.252z"/>
      <path id="path1481" d="m1.397 3.88h-0.279v-1.56h0.279zm-0.141-1.842q-0.075 0-0.129-0.048-0.051-0.051-0.051-0.135t0.051-0.132q0.054-0.051 0.129-0.051t0.126 0.051q0.054 0.048 0.054 0.132t-0.054 0.135q-0.051 0.048-0.126 0.048z"/>
      <path id="path1483" d="m1.877 2.365q0.096-0.024 0.252-0.051 0.159-0.027 0.366-0.027 0.15 0 0.252 0.042 0.102 0.039 0.171 0.117 0.021-0.015 0.066-0.042t0.111-0.051q0.066-0.027 0.147-0.045 0.081-0.021 0.174-0.021 0.18 0 0.294 0.054 0.114 0.051 0.177 0.147 0.066 0.096 0.087 0.228 0.024 0.132 0.024 0.288v0.876h-0.279v-0.816q0-0.138-0.015-0.237-0.012-0.099-0.051-0.165-0.036-0.066-0.102-0.096-0.063-0.033-0.165-0.033-0.141 0-0.234 0.039-0.09 0.036-0.123 0.066 0.024 0.078 0.036 0.171t0.012 0.195v0.876h-0.279v-0.816q0-0.138-0.015-0.237t-0.054-0.165q-0.036-0.066-0.102-0.096-0.063-0.033-0.162-0.033-0.042 0-0.09 3e-3t-0.093 9e-3q-0.042 3e-3 -0.078 9e-3t-0.048 9e-3v1.317h-0.279z"/>
      <path id="path1485" d="m4.373 3.103q0-0.207 0.06-0.36 0.06-0.156 0.159-0.258t0.228-0.153 0.264-0.051q0.315 0 0.483 0.198 0.168 0.195 0.168 0.597 0 0.018 0 0.048 0 0.027-3e-3 0.051h-1.068q0.018 0.243 0.141 0.369t0.384 0.126q0.147 0 0.246-0.024 0.102-0.027 0.153-0.051l0.039 0.234q-0.051 0.027-0.18 0.057-0.126 0.03-0.288 0.03-0.204 0-0.354-0.06-0.147-0.063-0.243-0.171t-0.144-0.255q-0.045-0.15-0.045-0.327zm1.071-0.153q3e-3 -0.189-0.096-0.309-0.096-0.123-0.267-0.123-0.096 0-0.171 0.039-0.072 0.036-0.123 0.096t-0.081 0.138q-0.027 0.078-0.036 0.159z"/>
    </g>
    <g id="g336" transform="translate(10.01,63.8)">
      <path id="path1488" d="m-1.4845 3.673q0.456 0 0.456-0.312 0-0.096-0.042-0.162-0.039-0.069-0.108-0.117-0.069-0.051-0.159-0.087-0.087-0.036-0.186-0.072-0.114-0.039-0.216-0.087-0.102-0.051-0.177-0.117-0.075-0.069-0.12-0.162-0.042-0.093-0.042-0.225 0-0.273 0.186-0.426t0.513-0.153q0.189 0 0.342 0.042 0.156 0.039 0.228 0.087l-0.093 0.237q-0.063-0.039-0.189-0.075-0.123-0.039-0.288-0.039-0.084 0-0.156 0.018t-0.126 0.054-0.087 0.093q-0.03 0.054-0.03 0.129 0 0.084 0.033 0.141t0.093 0.102q0.06 0.042 0.138 0.078 0.081 0.036 0.177 0.072 0.135 0.054 0.246 0.108 0.114 0.054 0.195 0.129 0.084 0.075 0.129 0.18 0.045 0.102 0.045 0.249 0 0.273-0.201 0.42-0.198 0.147-0.561 0.147-0.123 0-0.228-0.018-0.102-0.015-0.183-0.036-0.081-0.024-0.141-0.048-0.057-0.027-0.09-0.045l0.087-0.24q0.069 0.039 0.21 0.087t0.345 0.048z"/>
      <path id="path1490" d="m0.69351 3.103q0-0.273-0.135-0.42t-0.36-0.147q-0.126 0-0.198 9e-3 -0.069 9e-3 -0.111 0.021v0.984q0.051 0.042 0.147 0.081t0.21 0.039q0.12 0 0.204-0.042 0.087-0.045 0.141-0.12 0.054-0.078 0.078-0.18 0.024-0.105 0.024-0.225zm0.291 0q0 0.177-0.048 0.327-0.045 0.15-0.135 0.258t-0.222 0.168q-0.129 0.06-0.297 0.06-0.135 0-0.24-0.036-0.102-0.036-0.153-0.069v0.624h-0.279v-2.067q0.099-0.024 0.246-0.051 0.15-0.03 0.345-0.03 0.18 0 0.324 0.057t0.246 0.162 0.156 0.258q0.057 0.15 0.057 0.339z"/>
      <path id="path1492" d="m1.9535 2.287q0.036 0 0.081 6e-3 0.048 3e-3 0.093 0.012 0.045 6e-3 0.081 0.015 0.039 6e-3 0.057 0.012l-0.048 0.243q-0.033-0.012-0.111-0.027-0.075-0.018-0.195-0.018-0.078 0-0.156 0.018-0.075 0.015-0.099 0.021v1.311h-0.279v-1.494q0.099-0.036 0.246-0.066 0.147-0.033 0.33-0.033z"/>
      <path id="path1494" d="m2.4485 3.103q0-0.207 0.06-0.36 0.06-0.156 0.159-0.258t0.228-0.153 0.264-0.051q0.315 0 0.483 0.198 0.168 0.195 0.168 0.597 0 0.018 0 0.048 0 0.027-3e-3 0.051h-1.068q0.018 0.243 0.141 0.369t0.384 0.126q0.147 0 0.246-0.024 0.102-0.027 0.153-0.051l0.039 0.234q-0.051 0.027-0.18 0.057-0.126 0.03-0.288 0.03-0.204 0-0.354-0.06-0.147-0.063-0.243-0.171t-0.144-0.255q-0.045-0.15-0.045-0.327zm1.071-0.153q3e-3 -0.189-0.096-0.309-0.096-0.123-0.267-0.123-0.096 0-0.171 0.039-0.072 0.036-0.123 0.096t-0.081 0.138q-0.027 0.078-0.036 0.159z"/>
      <path id="path1496" d="m4.7405 3.679q0.099 0 0.174-3e-3 0.078-6e-3 0.129-0.018v-0.465q-0.03-0.015-0.099-0.024-0.066-0.012-0.162-0.012-0.063 0-0.135 9e-3 -0.069 9e-3 -0.129 0.039-0.057 0.027-0.096 0.078-0.039 0.048-0.039 0.129 0 0.15 0.096 0.21 0.096 0.057 0.261 0.057zm-0.024-1.398q0.168 0 0.282 0.045 0.117 0.042 0.186 0.123 0.072 0.078 0.102 0.189 0.03 0.108 0.03 0.24v0.975q-0.036 6e-3 -0.102 0.018-0.063 9e-3 -0.144 0.018t-0.177 0.015q-0.093 9e-3 -0.186 9e-3 -0.132 0-0.243-0.027t-0.192-0.084q-0.081-0.06-0.126-0.156t-0.045-0.231q0-0.129 0.051-0.222 0.054-0.093 0.144-0.15t0.21-0.084 0.252-0.027q0.042 0 0.087 6e-3 0.045 3e-3 0.084 0.012 0.042 6e-3 0.072 0.012t0.042 9e-3v-0.078q0-0.069-0.015-0.135-0.015-0.069-0.054-0.12-0.039-0.054-0.108-0.084-0.066-0.033-0.174-0.033-0.138 0-0.243 0.021-0.102 0.018-0.153 0.039l-0.033-0.231q0.054-0.024 0.18-0.045 0.126-0.024 0.273-0.024z"/>
      <path id="path1498" d="m6.7865 2.65q-0.051-0.042-0.147-0.081t-0.21-0.039q-0.12 0-0.207 0.045-0.084 0.042-0.138 0.12-0.054 0.075-0.078 0.18t-0.024 0.225q0 0.273 0.135 0.423 0.135 0.147 0.36 0.147 0.114 0 0.189-9e-3 0.078-0.012 0.12-0.024zm0-1.05 0.279-0.048v2.283q-0.096 0.027-0.246 0.054t-0.345 0.027q-0.18 0-0.324-0.057t-0.246-0.162-0.159-0.255q-0.054-0.153-0.054-0.342 0-0.18 0.045-0.33 0.048-0.15 0.138-0.258t0.219-0.168q0.132-0.06 0.3-0.06 0.135 0 0.237 0.036 0.105 0.036 0.156 0.069z"/>
    </g>
    <g id="g340" transform="translate(35.41,63.8)">
      <path id="path1501" d="m0.56301 3.898q-0.063 0-0.138-3e-3 -0.072-3e-3 -0.147-9e-3 -0.072-6e-3 -0.144-0.015t-0.132-0.024v-2.016q0.06-0.015 0.132-0.024t0.144-0.015q0.075-6e-3 0.147-9e-3t0.135-3e-3q0.18 0 0.336 0.027 0.159 0.027 0.273 0.093 0.117 0.063 0.183 0.168t0.066 0.258q0 0.171-0.081 0.282-0.081 0.108-0.216 0.162 0.183 0.054 0.291 0.171t0.108 0.33q0 0.312-0.231 0.471-0.228 0.156-0.726 0.156zm-0.273-0.987v0.732q0.033 3e-3 0.078 6e-3 0.039 3e-3 0.09 6e-3 0.054 0 0.123 0 0.129 0 0.243-0.015 0.117-0.018 0.204-0.06t0.138-0.117q0.054-0.075 0.054-0.189 0-0.102-0.039-0.171-0.039-0.072-0.114-0.114-0.072-0.042-0.174-0.06t-0.228-0.018zm0-0.234h0.306q0.108 0 0.204-0.015t0.165-0.054q0.072-0.039 0.111-0.102 0.042-0.063 0.042-0.159 0-0.09-0.042-0.15-0.042-0.063-0.117-0.099-0.072-0.039-0.171-0.057t-0.21-0.018-0.174 3e-3 -0.114 9e-3z"/>
      <path id="path1503" d="m2.192 3.88h-0.279v-1.56h0.279zm-0.141-1.842q-0.075 0-0.129-0.048-0.051-0.051-0.051-0.135t0.051-0.132q0.054-0.051 0.129-0.051t0.126 0.051q0.054 0.048 0.054 0.132t-0.054 0.135q-0.051 0.048-0.126 0.048z"/>
      <path id="path1505" d="m3.2 3.679q0.099 0 0.174-3e-3 0.078-6e-3 0.129-0.018v-0.465q-0.03-0.015-0.099-0.024-0.066-0.012-0.162-0.012-0.063 0-0.135 9e-3 -0.069 9e-3 -0.129 0.039-0.057 0.027-0.096 0.078-0.039 0.048-0.039 0.129 0 0.15 0.096 0.21 0.096 0.057 0.261 0.057zm-0.024-1.398q0.168 0 0.282 0.045 0.117 0.042 0.186 0.123 0.072 0.078 0.102 0.189 0.03 0.108 0.03 0.24v0.975q-0.036 6e-3 -0.102 0.018-0.063 9e-3 -0.144 0.018t-0.177 0.015q-0.093 9e-3 -0.186 9e-3 -0.132 0-0.243-0.027t-0.192-0.084q-0.081-0.06-0.126-0.156t-0.045-0.231q0-0.129 0.051-0.222 0.054-0.093 0.144-0.15t0.21-0.084 0.252-0.027q0.042 0 0.087 6e-3 0.045 3e-3 0.084 0.012 0.042 6e-3 0.072 0.012t0.042 9e-3v-0.078q0-0.069-0.015-0.135-0.015-0.069-0.054-0.12-0.039-0.054-0.108-0.084-0.066-0.033-0.174-0.033-0.138 0-0.243 0.021-0.102 0.018-0.153 0.039l-0.033-0.231q0.054-0.024 0.18-0.045 0.126-0.024 0.273-0.024z"/>
      <path id="path1507" d="m4.601 3.679q0.171 0 0.252-0.045 0.084-0.045 0.084-0.144 0-0.102-0.081-0.162t-0.267-0.135q-0.09-0.036-0.174-0.072-0.081-0.039-0.141-0.09t-0.096-0.123-0.036-0.177q0-0.207 0.153-0.327 0.153-0.123 0.417-0.123 0.066 0 0.132 9e-3 0.066 6e-3 0.123 0.018 0.057 9e-3 0.099 0.021 0.045 0.012 0.069 0.021l-0.051 0.24q-0.045-0.024-0.141-0.048-0.096-0.027-0.231-0.027-0.117 0-0.204 0.048-0.087 0.045-0.087 0.144 0 0.051 0.018 0.09 0.021 0.039 0.06 0.072 0.042 0.03 0.102 0.057t0.144 0.057q0.111 0.042 0.198 0.084 0.087 0.039 0.147 0.093 0.063 0.054 0.096 0.132 0.033 0.075 0.033 0.186 0 0.216-0.162 0.327-0.159 0.111-0.456 0.111-0.207 0-0.324-0.036-0.117-0.033-0.159-0.051l0.051-0.24q0.048 0.018 0.153 0.054t0.279 0.036z"/>
    </g>
    <g id="g346" transform="translate(12.55,76.5)">
      <path id="path1510" d="m-9.2405 1.545q-0.204 0-0.354-0.063t-0.246-0.171q-0.096-0.111-0.144-0.261-0.045-0.15-0.045-0.324v-1.305h0.291v1.272q0 0.312 0.138 0.453t0.36 0.141q0.111 0 0.201-0.033 0.093-0.036 0.159-0.108t0.102-0.183q0.036-0.114 0.036-0.27v-1.272h0.291v1.305q0 0.174-0.048 0.324-0.045 0.15-0.144 0.261-0.096 0.108-0.246 0.171-0.147 0.063-0.351 0.063z"/>
      <path id="path1512" d="m-7.9685-0.015q0.096-0.024 0.255-0.051t0.366-0.027q0.186 0 0.309 0.054 0.123 0.051 0.195 0.147 0.075 0.093 0.105 0.225t0.03 0.291v0.876h-0.279v-0.816q0-0.144-0.021-0.246-0.018-0.102-0.063-0.165t-0.12-0.09q-0.075-0.03-0.186-0.03-0.045 0-0.093 3e-3t-0.093 9e-3q-0.042 3e-3 -0.078 9e-3 -0.033 6e-3 -0.048 9e-3v1.317h-0.279z"/>
      <path id="path1514" d="m-5.9675 1.5h-0.279v-1.56h0.279zm-0.141-1.842q-0.075 0-0.129-0.048-0.051-0.051-0.051-0.135t0.051-0.132q0.054-0.051 0.129-0.051t0.126 0.051q0.054 0.048 0.054 0.132t-0.054 0.135q-0.051 0.048-0.126 0.048z"/>
      <path id="path1517" d="m7.475 1.518q-0.063 0-0.138-3e-3 -0.072-3e-3 -0.147-9e-3 -0.072-6e-3 -0.144-0.015t-0.132-0.024v-2.016q0.06-0.015 0.132-0.024t0.144-0.015q0.075-6e-3 0.147-9e-3t0.135-3e-3q0.18 0 0.336 0.027 0.159 0.027 0.273 0.093 0.117 0.063 0.183 0.168t0.066 0.258q0 0.171-0.081 0.282-0.081 0.108-0.216 0.162 0.183 0.054 0.291 0.171t0.108 0.33q0 0.312-0.231 0.471-0.228 0.156-0.726 0.156zm-0.273-0.987v0.732q0.033 3e-3 0.078 6e-3 0.039 3e-3 0.09 6e-3 0.054 0 0.123 0 0.129 0 0.243-0.015 0.117-0.018 0.204-0.06t0.138-0.117q0.054-0.075 0.054-0.189 0-0.102-0.039-0.171-0.039-0.072-0.114-0.114-0.072-0.042-0.174-0.06t-0.228-0.018zm0-0.234h0.306q0.108 0 0.204-0.015t0.165-0.054q0.072-0.039 0.111-0.102 0.042-0.063 0.042-0.159 0-0.09-0.042-0.15-0.042-0.063-0.117-0.099-0.072-0.039-0.171-0.057t-0.21-0.018-0.174 3e-3 -0.114 9e-3z"/>
      <path id="path1519" d="m9.104 1.5h-0.279v-1.56h0.279zm-0.141-1.842q-0.075 0-0.129-0.048-0.051-0.051-0.051-0.135t0.051-0.132q0.054-0.051 0.129-0.051t0.126 0.051q0.054 0.048 0.054 0.132t-0.054 0.135q-0.051 0.048-0.126 0.048z"/>
    </g>
    <g id="g352" transform="translate(37.95,76.5)">
      <path id="path1522" d="m-8.966-0.579v0.252h-0.654v1.827h-0.291v-1.827h-0.654v-0.252z"/>
      <path id="path1524" d="m-8.222-0.093q0.036 0 0.081 6e-3 0.048 3e-3 0.093 0.012 0.045 6e-3 0.081 0.015 0.039 6e-3 0.057 0.012l-0.048 0.243q-0.033-0.012-0.111-0.027-0.075-0.018-0.195-0.018-0.078 0-0.156 0.018-0.075 0.015-0.099 0.021v1.311h-0.279v-1.494q0.099-0.036 0.246-0.066 0.147-0.033 0.33-0.033z"/>
      <path id="path1526" d="m-7.361 1.5h-0.279v-1.56h0.279zm-0.141-1.842q-0.075 0-0.129-0.048-0.051-0.051-0.051-0.135t0.051-0.132q0.054-0.051 0.129-0.051t0.126 0.051q0.054 0.048 0.054 0.132t-0.054 0.135q-0.051 0.048-0.126 0.048z"/>
      <path id="path1528" d="m-5.903 1.344q-0.036 0.024-0.141 0.063-0.102 0.036-0.24 0.036-0.141 0-0.267-0.045-0.123-0.045-0.216-0.138-0.093-0.096-0.147-0.237t-0.054-0.336q0-0.171 0.051-0.312 0.051-0.144 0.147-0.246 0.099-0.105 0.24-0.162 0.141-0.06 0.318-0.06 0.195 0 0.339 0.03 0.147 0.027 0.246 0.051v1.392q0 0.36-0.186 0.522t-0.564 0.162q-0.147 0-0.279-0.024-0.129-0.024-0.225-0.057l0.051-0.243q0.084 0.033 0.204 0.057 0.123 0.027 0.255 0.027 0.249 0 0.357-0.099 0.111-0.099 0.111-0.315zm-3e-3 -1.158q-0.042-0.012-0.114-0.021-0.069-0.012-0.189-0.012-0.225 0-0.348 0.147-0.12 0.147-0.12 0.39 0 0.135 0.033 0.231 0.036 0.096 0.093 0.159 0.06 0.063 0.135 0.093 0.078 0.03 0.159 0.03 0.111 0 0.204-0.03 0.093-0.033 0.147-0.075z"/>
      <path id="path1531" d="m6.3095 0.477h0.291v0.972q-0.036 0.012-0.105 0.027-0.066 0.015-0.156 0.03-0.087 0.015-0.192 0.024-0.105 0.012-0.213 0.012-0.219 0-0.399-0.072t-0.309-0.21-0.201-0.339q-0.069-0.201-0.069-0.462t0.078-0.462q0.081-0.204 0.216-0.342t0.315-0.21q0.183-0.072 0.39-0.072 0.141 0 0.249 0.018 0.111 0.018 0.189 0.042t0.126 0.048q0.051 0.024 0.069 0.036l-0.093 0.243q-0.087-0.057-0.231-0.093-0.144-0.039-0.294-0.039-0.159 0-0.291 0.057-0.129 0.057-0.222 0.165-0.09 0.108-0.141 0.264-0.051 0.153-0.051 0.345 0 0.186 0.042 0.339 0.045 0.153 0.132 0.264 0.09 0.108 0.219 0.168 0.132 0.06 0.309 0.06 0.126 0 0.213-0.012 0.09-0.015 0.129-0.027z"/>
      <path id="path1533" d="m7.5665 1.299q0.099 0 0.174-3e-3 0.078-6e-3 0.129-0.018v-0.465q-0.03-0.015-0.099-0.024-0.066-0.012-0.162-0.012-0.063 0-0.135 9e-3 -0.069 9e-3 -0.129 0.039-0.057 0.027-0.096 0.078-0.039 0.048-0.039 0.129 0 0.15 0.096 0.21 0.096 0.057 0.261 0.057zm-0.024-1.398q0.168 0 0.282 0.045 0.117 0.042 0.186 0.123 0.072 0.078 0.102 0.189 0.03 0.108 0.03 0.24v0.975q-0.036 6e-3 -0.102 0.018-0.063 9e-3 -0.144 0.018t-0.177 0.015q-0.093 9e-3 -0.186 9e-3 -0.132 0-0.243-0.027t-0.192-0.084q-0.081-0.06-0.126-0.156t-0.045-0.231q0-0.129 0.051-0.222 0.054-0.093 0.144-0.15t0.21-0.084 0.252-0.027q0.042 0 0.087 6e-3 0.045 3e-3 0.084 0.012 0.042 6e-3 0.072 0.012t0.042 9e-3v-0.078q0-0.069-0.015-0.135-0.015-0.069-0.054-0.12-0.039-0.054-0.108-0.084-0.066-0.033-0.174-0.033-0.138 0-0.243 0.021-0.102 0.018-0.153 0.039l-0.033-0.231q0.054-0.024 0.18-0.045 0.126-0.024 0.273-0.024z"/>
      <path id="path1535" d="m8.8655-0.06h0.591v0.234h-0.591v0.72q0 0.117 0.018 0.195 0.018 0.075 0.054 0.12 0.036 0.042 0.09 0.06t0.126 0.018q0.126 0 0.201-0.027 0.078-0.03 0.108-0.042l0.054 0.231q-0.042 0.021-0.147 0.051-0.105 0.033-0.24 0.033-0.159 0-0.264-0.039-0.102-0.042-0.165-0.123t-0.09-0.198q-0.024-0.12-0.024-0.276v-1.392l0.279-0.048z"/>
      <path id="path1537" d="m9.6935 0.723q0-0.207 0.06-0.36 0.06-0.156 0.159-0.258t0.228-0.153q0.129-0.051 0.264-0.051 0.315 0 0.483 0.198 0.168 0.195 0.168 0.597 0 0.018 0 0.048 0 0.027-3e-3 0.051h-1.068q0.018 0.243 0.141 0.369 0.123 0.126 0.384 0.126 0.147 0 0.246-0.024 0.102-0.027 0.153-0.051l0.039 0.234q-0.051 0.027-0.18 0.057-0.126 0.03-0.288 0.03-0.204 0-0.354-0.06-0.147-0.063-0.243-0.171t-0.144-0.255q-0.045-0.15-0.045-0.327zm1.071-0.153q3e-3 -0.189-0.096-0.309-0.096-0.123-0.267-0.123-0.096 0-0.171 0.039-0.072 0.036-0.123 0.096t-0.081 0.138q-0.027 0.078-0.036 0.159z"/>
    </g>
    <g id="g355" transform="translate(7.47,86.66)">
      <path id="path1540" d="m-2.553-0.93808q-0.219 0-0.399-0.072t-0.309-0.21-0.201-0.339q-0.069-0.204-0.069-0.465t0.078-0.462q0.081-0.204 0.216-0.342t0.315-0.21 0.384-0.072q0.129 0 0.231 0.018 0.105 0.018 0.18 0.042 0.078 0.024 0.126 0.048t0.066 0.036l-0.084 0.24q-0.027-0.018-0.078-0.039t-0.117-0.042q-0.063-0.021-0.141-0.033-0.075-0.015-0.153-0.015-0.165 0-0.297 0.057t-0.225 0.165-0.144 0.264q-0.048 0.153-0.048 0.345 0 0.186 0.042 0.339 0.045 0.153 0.132 0.264 0.087 0.108 0.216 0.168 0.132 0.06 0.306 0.06 0.201 0 0.333-0.042t0.198-0.075l0.075 0.24q-0.021 0.015-0.075 0.039-0.054 0.021-0.135 0.042t-0.189 0.036-0.234 0.015z"/>
      <path id="path1542" d="m-1.137-0.95308q-0.258-6e-3 -0.366-0.111-0.108-0.105-0.108-0.327v-1.872l0.279-0.048v1.875q0 0.069 0.012 0.114t0.039 0.072 0.072 0.042q0.045 0.012 0.111 0.021z"/>
      <path id="path1544" d="m0.591-1.7631q0 0.186-0.054 0.336t-0.153 0.258q-0.096 0.108-0.231 0.168-0.135 0.057-0.294 0.057t-0.294-0.057q-0.135-0.06-0.234-0.168-0.096-0.108-0.15-0.258t-0.054-0.336q0-0.183 0.054-0.333 0.054-0.153 0.15-0.261 0.099-0.108 0.234-0.165 0.135-0.06 0.294-0.06t0.294 0.06q0.135 0.057 0.231 0.165 0.099 0.108 0.153 0.261 0.054 0.15 0.054 0.333zm-0.291 0q0-0.264-0.12-0.417-0.117-0.156-0.321-0.156t-0.324 0.156q-0.117 0.153-0.117 0.417t0.117 0.42q0.12 0.153 0.324 0.153t0.321-0.153q0.12-0.156 0.12-0.42z"/>
      <path id="path1546" d="m1.662-0.94708q-0.189 0-0.333-0.06-0.141-0.06-0.24-0.168-0.096-0.108-0.144-0.255-0.048-0.15-0.048-0.33t0.051-0.33q0.054-0.15 0.15-0.258 0.096-0.111 0.234-0.171 0.141-0.063 0.312-0.063 0.105 0 0.21 0.018t0.201 0.057l-0.063 0.237q-0.063-0.03-0.147-0.048-0.081-0.018-0.174-0.018-0.234 0-0.36 0.147-0.123 0.147-0.123 0.429 0 0.126 0.027 0.231 0.03 0.105 0.09 0.18 0.063 0.075 0.159 0.117 0.096 0.039 0.234 0.039 0.111 0 0.201-0.021t0.141-0.045l0.039 0.234q-0.024 0.015-0.069 0.03-0.045 0.012-0.102 0.021-0.057 0.012-0.123 0.018-0.063 9e-3 -0.123 9e-3z"/>
      <path id="path1548" d="m2.943-1.8411q0.09 0.069 0.189 0.171 0.102 0.102 0.198 0.222 0.099 0.117 0.186 0.24 0.087 0.12 0.147 0.225h-0.327q-0.063-0.105-0.147-0.213-0.081-0.111-0.171-0.21-0.09-0.102-0.183-0.186t-0.177-0.141v0.75h-0.279v-2.28l0.279-0.048v1.422q0.072-0.072 0.159-0.159t0.171-0.177 0.159-0.171q0.075-0.084 0.129-0.147h0.327q-0.069 0.075-0.15 0.165t-0.168 0.183q-0.087 0.09-0.177 0.183-0.087 0.09-0.165 0.171z"/>
    </g>
    <g id="g358" transform="translate(17.63,86.66)">
      <path id="path1551" d="m-4.374-0.98308v-2.079h1.269v0.249h-0.978v0.618h0.87v0.243h-0.87v0.72h1.053v0.249z"/>
      <path id="path1553" d="m-2.679-2.4981q0.096-0.024 0.255-0.051t0.366-0.027q0.186 0 0.309 0.054 0.123 0.051 0.195 0.147 0.075 0.093 0.105 0.225t0.03 0.291v0.876h-0.279v-0.816q0-0.144-0.021-0.246-0.018-0.102-0.063-0.165t-0.12-0.09q-0.075-0.03-0.186-0.03-0.045 0-0.093 3e-3t-0.093 9e-3q-0.042 3e-3 -0.078 9e-3 -0.033 6e-3 -0.048 9e-3v1.317h-0.279z"/>
      <path id="path1555" d="m-0.42899-1.1841q0.099 0 0.174-3e-3 0.078-6e-3 0.129-0.018v-0.465q-0.03-0.015-0.099-0.024-0.066-0.012-0.162-0.012-0.063 0-0.135 9e-3 -0.069 9e-3 -0.129 0.039-0.057 0.027-0.096 0.078-0.039 0.048-0.039 0.129 0 0.15 0.096 0.21 0.096 0.057 0.261 0.057zm-0.024-1.398q0.168 0 0.282 0.045 0.117 0.042 0.186 0.123 0.072 0.078 0.102 0.189 0.03 0.108 0.03 0.24v0.975q-0.036 6e-3 -0.102 0.018-0.063 9e-3 -0.144 0.018t-0.177 0.015q-0.093 9e-3 -0.186 9e-3 -0.132 0-0.243-0.027t-0.192-0.084q-0.081-0.06-0.126-0.156-0.045-0.096-0.045-0.231 0-0.129 0.051-0.222 0.054-0.093 0.144-0.15 0.09-0.057 0.21-0.084t0.252-0.027q0.042 0 0.087 6e-3 0.045 3e-3 0.084 0.012 0.042 6e-3 0.072 0.012t0.042 9e-3v-0.078q0-0.069-0.015-0.135-0.015-0.069-0.054-0.12-0.039-0.054-0.108-0.084-0.066-0.033-0.174-0.033-0.138 0-0.243 0.021-0.102 0.018-0.153 0.039l-0.033-0.231q0.054-0.024 0.18-0.045 0.126-0.024 0.273-0.024z"/>
      <path id="path1557" d="m0.888-2.4741q0.051-0.033 0.153-0.069 0.105-0.036 0.24-0.036 0.168 0 0.297 0.06 0.132 0.06 0.222 0.168t0.135 0.258q0.048 0.15 0.048 0.33 0 0.189-0.057 0.342-0.054 0.15-0.156 0.255t-0.246 0.162-0.324 0.057q-0.195 0-0.345-0.027t-0.246-0.054v-2.235l0.279-0.048zm0 1.248q0.042 0.012 0.117 0.024 0.078 9e-3 0.192 9e-3 0.225 0 0.36-0.147 0.135-0.15 0.135-0.423 0-0.12-0.024-0.225t-0.078-0.18q-0.054-0.078-0.141-0.12-0.084-0.045-0.204-0.045-0.114 0-0.21 0.039t-0.147 0.081z"/>
      <path id="path1559" d="m2.844-0.95308q-0.258-6e-3 -0.366-0.111-0.108-0.105-0.108-0.327v-1.872l0.279-0.048v1.875q0 0.069 0.012 0.114t0.039 0.072 0.072 0.042q0.045 0.012 0.111 0.021z"/>
      <path id="path1561" d="m3.108-1.7601q0-0.207 0.06-0.36 0.06-0.156 0.159-0.258t0.228-0.153 0.264-0.051q0.315 0 0.483 0.198 0.168 0.195 0.168 0.597 0 0.018 0 0.048 0 0.027-3e-3 0.051h-1.068q0.018 0.243 0.141 0.369t0.384 0.126q0.147 0 0.246-0.024 0.102-0.027 0.153-0.051l0.039 0.234q-0.051 0.027-0.18 0.057-0.126 0.03-0.288 0.03-0.204 0-0.354-0.06-0.147-0.063-0.243-0.171t-0.144-0.255q-0.045-0.15-0.045-0.327zm1.071-0.153q3e-3 -0.189-0.096-0.309-0.096-0.123-0.267-0.123-0.096 0-0.171 0.039-0.072 0.036-0.123 0.096t-0.081 0.138q-0.027 0.078-0.036 0.159z"/>
    </g>
    <g id="g362" transform="translate(12.55,109.52)">
      <path id="path_tafqtyjiuq" transform="matrix(.26458 0 0 .26458 -13.05 -110.02)" d="m37.418 381.18a5.6693 5.6693 0 0 0-5.6699 5.668v45.355a5.6693 5.6693 0 0 0 5.6699 5.668h23.811a5.6693 5.6693 0 0 0 5.6699-5.668v-45.355a5.6693 5.6693 0 0 0-5.6699-5.668zm11.904 4.3457a13.229 13.229 0 0 1 0 26.457 13.229 13.229 0 0 1 0-26.457zm-5.5098 35.426c0.50646 0 0.98175 0.0859 1.4277 0.25976 0.45354 0.17386 0.85125 0.43549 1.1914 0.78321 0.34016 0.34015 0.60815 0.76723 0.80469 1.2812 0.2041 0.51401 0.30664 1.1065 0.30664 1.7793 0 0.67276-0.10255 1.2672-0.30664 1.7812-0.19654 0.51402-0.46453 0.94526-0.80469 1.293-0.34016 0.34016-0.73786 0.59568-1.1914 0.76953-0.44598 0.17386-0.92128 0.26172-1.4277 0.26172-0.51402 0-1.0018-0.0879-1.4629-0.26172-0.45354-0.17385-0.85346-0.42937-1.2012-0.76953-0.34016-0.34771-0.61231-0.77895-0.81641-1.293-0.19654-0.51401-0.29492-1.1085-0.29492-1.7812 0-0.67275 0.09839-1.2653 0.29492-1.7793 0.2041-0.51402 0.47625-0.9411 0.81641-1.2812 0.34772-0.34772 0.74763-0.60935 1.2012-0.78321 0.4611-0.17385 0.94888-0.25976 1.4629-0.25976zm12.789 0.3164v1.8262h2.2344v0.88476h-2.2344v2.7207c1e-6 0.2948 0.02301 0.54174 0.06836 0.73828 0.04535 0.18897 0.11437 0.33974 0.20508 0.45312 0.09071 0.10583 0.20378 0.18121 0.33984 0.22656 0.13606 0.0454 0.29514 0.0684 0.47656 0.0684 0.31748 0 0.57079-0.0355 0.75977-0.10351 0.19654-0.0756 0.33261-0.12797 0.4082-0.1582l0.20312 0.87304c-0.10583 0.0529-0.29012 0.11777-0.55469 0.19336-0.26457 0.0832-0.56804 0.125-0.9082 0.125-0.40063 0-0.73348-0.0502-0.99805-0.14844-0.25701-0.10582-0.46431-0.26075-0.62305-0.46484-0.15874-0.20409-0.27181-0.45324-0.33984-0.74805-0.06047-0.30236-0.0918-0.64989-0.0918-1.043v-5.2617zm-12.812 0.64649c-0.40063 0-0.76285 0.0754-1.0879 0.22656-0.31748 0.14362-0.58964 0.35288-0.81641 0.625-0.21921 0.27213-0.38882 0.60498-0.50977 0.99805-0.12094 0.38551-0.18164 0.81479-0.18164 1.291s0.0607 0.91162 0.18164 1.3047c0.12094 0.38551 0.29055 0.7142 0.50977 0.98633 0.22677 0.27213 0.49893 0.48358 0.81641 0.63477 0.32504 0.14362 0.68726 0.21484 1.0879 0.21484 0.40063 0 0.76064-0.0712 1.0781-0.21484 0.31748-0.15119 0.58547-0.36264 0.80469-0.63477 0.22677-0.27213 0.40054-0.60082 0.52148-0.98633 0.12094-0.39307 0.18164-0.82847 0.18164-1.3047s-0.0607-0.9055-0.18164-1.291c-0.12094-0.39307-0.29471-0.72592-0.52148-0.99805-0.21921-0.27212-0.48721-0.48138-0.80469-0.625-0.31748-0.15118-0.6775-0.22656-1.0781-0.22656zm5.25 1.1797h1.0547v3.084c0 0.71811 0.11307 1.233 0.33984 1.543 0.22677 0.30992 0.60979 0.46484 1.1465 0.46484 0.11339 0 0.23062-4e-3 0.35156-0.0117 0.12094-8e-3 0.23402-0.0159 0.33984-0.0234 0.10583-0.0151 0.20005-0.0256 0.2832-0.0332 0.09071-0.0151 0.15556-0.0298 0.19336-0.0449v-4.9785h1.0527v5.7266c-0.24189 0.0605-0.56226 0.12337-0.96289 0.19141-0.39307 0.068-0.84952 0.10351-1.3711 0.10351-0.45354 0-0.83656-0.0648-1.1465-0.19336-0.30992-0.13606-0.55907-0.32451-0.74805-0.5664-0.18898-0.24189-0.32505-0.52653-0.4082-0.85157-0.08315-0.3326-0.125-0.69898-0.125-1.0996z" style=""/>
    </g>
    <g id="g369" transform="translate(37.95,86.66)">
      <path id="path1564" d="m-1.977-0.96508q-0.063 0-0.138-3e-3 -0.072-3e-3 -0.147-9e-3 -0.072-6e-3 -0.144-0.015t-0.132-0.024v-2.016q0.06-0.015 0.132-0.024t0.144-0.015q0.075-6e-3 0.147-9e-3t0.135-3e-3q0.18 0 0.336 0.027 0.159 0.027 0.273 0.093 0.117 0.063 0.183 0.168t0.066 0.258q0 0.171-0.081 0.282-0.081 0.108-0.216 0.162 0.183 0.054 0.291 0.171t0.108 0.33q0 0.312-0.231 0.471-0.228 0.156-0.726 0.156zm-0.273-0.987v0.732q0.033 3e-3 0.078 6e-3 0.039 3e-3 0.09 6e-3 0.054 0 0.123 0 0.129 0 0.243-0.015 0.117-0.018 0.204-0.06t0.138-0.117q0.054-0.075 0.054-0.189 0-0.102-0.039-0.171-0.039-0.072-0.114-0.114-0.072-0.042-0.174-0.06t-0.228-0.018zm0-0.234h0.306q0.108 0 0.204-0.015t0.165-0.054q0.072-0.039 0.111-0.102 0.042-0.063 0.042-0.159 0-0.09-0.042-0.15-0.042-0.063-0.117-0.099-0.072-0.039-0.171-0.057t-0.21-0.018-0.174 3e-3 -0.114 9e-3z"/>
      <path id="path1566" d="m-0.348-0.98308h-0.279v-1.56h0.279zm-0.141-1.842q-0.075 0-0.129-0.048-0.051-0.051-0.051-0.135t0.051-0.132q0.054-0.051 0.129-0.051t0.126 0.051q0.054 0.048 0.054 0.132t-0.054 0.135q-0.051 0.048-0.126 0.048z"/>
      <path id="path1568" d="m0.66-1.1841q0.099 0 0.174-3e-3 0.078-6e-3 0.129-0.018v-0.465q-0.03-0.015-0.099-0.024-0.066-0.012-0.162-0.012-0.063 0-0.135 9e-3 -0.069 9e-3 -0.129 0.039-0.057 0.027-0.096 0.078-0.039 0.048-0.039 0.129 0 0.15 0.096 0.21 0.096 0.057 0.261 0.057zm-0.024-1.398q0.168 0 0.282 0.045 0.117 0.042 0.186 0.123 0.072 0.078 0.102 0.189 0.03 0.108 0.03 0.24v0.975q-0.036 6e-3 -0.102 0.018-0.063 9e-3 -0.144 0.018-0.081 9e-3 -0.177 0.015-0.093 9e-3 -0.186 9e-3 -0.132 0-0.243-0.027t-0.192-0.084q-0.081-0.06-0.126-0.156t-0.045-0.231q0-0.129 0.051-0.222 0.054-0.093 0.144-0.15t0.21-0.084 0.252-0.027q0.042 0 0.087 6e-3 0.045 3e-3 0.084 0.012 0.042 6e-3 0.072 0.012t0.042 9e-3v-0.078q0-0.069-0.015-0.135-0.015-0.069-0.054-0.12-0.039-0.054-0.108-0.084-0.066-0.033-0.174-0.033-0.138 0-0.243 0.021-0.102 0.018-0.153 0.039l-0.033-0.231q0.054-0.024 0.18-0.045 0.126-0.024 0.273-0.024z"/>
      <path id="path1570" d="m2.061-1.1841q0.171 0 0.252-0.045 0.084-0.045 0.084-0.144 0-0.102-0.081-0.162t-0.267-0.135q-0.09-0.036-0.174-0.072-0.081-0.039-0.141-0.09t-0.096-0.123-0.036-0.177q0-0.207 0.153-0.327 0.153-0.123 0.417-0.123 0.066 0 0.132 9e-3 0.066 6e-3 0.123 0.018 0.057 9e-3 0.099 0.021 0.045 0.012 0.069 0.021l-0.051 0.24q-0.045-0.024-0.141-0.048-0.096-0.027-0.231-0.027-0.117 0-0.204 0.048-0.087 0.045-0.087 0.144 0 0.051 0.018 0.09 0.021 0.039 0.06 0.072 0.042 0.03 0.102 0.057t0.144 0.057q0.111 0.042 0.198 0.084 0.087 0.039 0.147 0.093 0.063 0.054 0.096 0.132 0.033 0.075 0.033 0.186 0 0.216-0.162 0.327-0.159 0.111-0.456 0.111-0.207 0-0.324-0.036-0.117-0.033-0.159-0.051l0.051-0.24q0.048 0.018 0.153 0.054t0.279 0.036z"/>
    </g>
    <g id="g373" transform="translate(32.87,109.52)">
      <path id="path_ndnumzhels" transform="matrix(.26458 0 0 .26458 -33.37 -110.02)" d="m114.22 381.18a5.6693 5.6693 0 0 0-5.668 5.668v45.355a5.6693 5.6693 0 0 0 5.668 5.668h23.812a5.6693 5.6693 0 0 0 5.668-5.668v-45.355a5.6693 5.6693 0 0 0-5.668-5.668zm11.906 4.3457a13.229 13.229 0 0 1 0 26.457 13.229 13.229 0 0 1 0-26.457zm-0.50391 35.607h1.0078c0.27213 0.56693 0.53376 1.1406 0.78321 1.7227 0.24945 0.57448 0.49859 1.1795 0.74804 1.8144 0.25701 0.63496 0.51864 1.307 0.78321 2.0176 0.26456 0.70299 0.54724 1.4712 0.84961 2.3027h-1.2012c-0.1285-0.34016-0.24989-0.67301-0.36328-0.99805-0.11338-0.33259-0.23062-0.6696-0.35156-1.0098h-3.5606l-0.71484 2.0078h-1.1445c0.30236-0.83149 0.58504-1.5997 0.84961-2.3027 0.26456-0.71055 0.52203-1.3826 0.77148-2.0176 0.25701-0.63496 0.51032-1.24 0.75977-1.8144 0.24945-0.58205 0.51107-1.1557 0.7832-1.7227zm0.47461 1.2578c-0.26457 0.56693-0.51788 1.1614-0.75977 1.7812-0.23433 0.61229-0.46879 1.2467-0.70312 1.9043h2.9258c-0.24189-0.65764-0.48272-1.292-0.72461-1.9043-0.23433-0.61984-0.48127-1.2143-0.73828-1.7812z" style=""/>
    </g>
    <g id="g377" transform="translate(43.03,109.52)">
      <path id="path_hqzenjaugg" transform="matrix(.26458 0 0 .26458 -43.53 -110.02)" d="m152.62 381.18a5.6693 5.6693 0 0 0-5.6699 5.668v45.355a5.6693 5.6693 0 0 0 5.6699 5.668h23.811a5.6693 5.6693 0 0 0 5.6699-5.668v-45.355a5.6693 5.6693 0 0 0-5.6699-5.668zm11.906 4.3457a13.229 13.229 0 0 1 0 26.457 13.229 13.229 0 0 1 0-26.457zm-0.5625 35.527c0.45354 0 0.87841 0.0335 1.2715 0.10156 0.40063 0.068 0.74401 0.18527 1.0312 0.35157 0.29481 0.15874 0.52511 0.37019 0.69141 0.63476s0.25 0.59105 0.25 0.97656c0 0.43087-0.10255 0.78477-0.30664 1.0645-0.2041 0.27212-0.47625 0.47722-0.81641 0.61328 0.4611 0.13606 0.82748 0.35168 1.0996 0.64648 0.27213 0.29481 0.4082 0.7094 0.4082 1.2461 0 0.78614-0.291 1.3806-0.87304 1.7812-0.57449 0.39307-1.4893 0.58984-2.7441 0.58984-0.15874 0-0.33251-4e-3 -0.52149-0.0117-0.18142-8e-3 -0.36571-0.02-0.55469-0.0351-0.18141-0.0151-0.3635-0.034-0.54492-0.0566-0.18141-0.0227-0.34686-0.052-0.49804-0.0898v-7.6191c0.15118-0.0378 0.31663-0.0691 0.49804-0.0918 0.18142-0.0227 0.36351-0.0415 0.54492-0.0566 0.18898-0.0151 0.37327-0.0256 0.55469-0.0332 0.18142-8e-3 0.35103-0.0117 0.50977-0.0117zm0.0684 0.91797c-0.27969 0-0.49947 4e-3 -0.65821 0.0117-0.15874 8e-3 -0.30118 0.02-0.42968 0.0351v2.4258h1.1562c0.27212 0 0.52959-0.0189 0.77148-0.0566 0.24189-0.0378 0.44919-0.10681 0.62305-0.20508 0.18141-0.0983 0.32165-0.22603 0.41992-0.38477 0.10583-0.15874 0.1582-0.35967 0.1582-0.60156 0-0.22677-0.0524-0.41523-0.1582-0.56641-0.10583-0.15874-0.25438-0.28429-0.44336-0.375-0.18142-0.0983-0.39508-0.16949-0.64453-0.21484-0.24945-0.0453-0.51524-0.0684-0.79492-0.0684zm-1.0879 3.3574v2.7656c0.0832 8e-3 0.18153 0.0159 0.29492 0.0234 0.0983 8e-3 0.21134 0.0139 0.33984 0.0215h0.46485c0.32503 0 0.63072-0.0189 0.91796-0.0566 0.29481-0.0454 0.55228-0.12074 0.77149-0.22656 0.21921-0.10583 0.39298-0.25243 0.52148-0.44141 0.13607-0.18898 0.20508-0.4276 0.20508-0.71484 0-0.25701-0.0502-0.47263-0.14844-0.64649-0.0983-0.18142-0.24266-0.32386-0.43164-0.42969-0.18141-0.10582-0.39924-0.1812-0.65625-0.22656-0.257-0.0453-0.54384-0.0684-0.86132-0.0684z" style=""/>
    </g>
    <path id="path383" d="m25.25 54v59" fill="none" stroke="#000" stroke-width=".8"/>
    <path id="path385" d="m25.25 15-1.75-3h3.5z"/>
  </g>
  <g id="throughholes">
    <circle id="circle389" cx="7.47" cy="3" r="1.7"/>
    <circle id="circle391" cx="7.47" cy="125.5" r="1.7"/>
    <circle id="circle393" cx="43.03" cy="3" r="1.7"/>
    <circle id="circle395" cx="43.03" cy="125.5" r="1.7"/>
    <circle id="circle397" cx="12.55" cy="30.78" r="3.65"/>
    <circle id="circle401" cx="37.95" cy="30.78" r="3.65"/>
    <circle id="circle405" cx="12.55" cy="56.18" r="3.65"/>
    <circle id="circle409" cx="37.95" cy="56.18" r="3.65"/>
    <circle id="circle413" cx="12.55" cy="76.5" r="3.325"/>
    <circle id="circle417" cx="37.95" cy="76.5" r="3.325"/>
    <circle id="circle421" cx="7.47" cy="91.177" r="3.15"/>
    <circle id="circle425" cx="17.63" cy="91.177" r="3.15"/>
    <circle id="circle429" cx="12.55" cy="105" r="3.15"/>
    <circle id="circle433" cx="37.95" cy="91.177" r="3.15"/>
    <circle id="circle437" cx="32.87" cy="105" r="3.15"/>
    <circle id="circle441" cx="43.03" cy="105" r="3.15"/>
  </g>
  <g id="cosmetics">
    <g id="cosmetics_offset" transform="translate(25.25,13)">
      <g id="g451" transform="translate(-19.05 2.54)">
        <circle id="circle447" cy="1.27" r="1.55" fill="url(#id1) none"/>
        <ellipse id="ellipse449" transform="rotate(20 .51667 .495)" cx=".51667" cy=".495" rx=".775" ry=".51667" fill="#fff" opacity=".8"/>
      </g>
      <g id="g457" transform="translate(-12.7,2.54)">
        <circle id="circle453" cy="1.27" r="1.55" fill="url(#id1) none"/>
        <ellipse id="ellipse455" transform="rotate(20 .51667 .495)" cx=".51667" cy=".495" rx=".775" ry=".51667" fill="#fff" opacity=".8"/>
      </g>
      <g id="g463" transform="translate(-6.35,2.54)">
        <circle id="circle459" cy="1.27" r="1.55" fill="url(#id1) none"/>
        <ellipse id="ellipse461" transform="rotate(20 .51667 .495)" cx=".51667" cy=".495" rx=".775" ry=".51667" fill="#fff" opacity=".8"/>
      </g>
      <g id="g469" transform="translate(0 2.54)">
        <circle id="circle465" cy="1.27" r="1.55" fill="url(#id1) none"/>
        <ellipse id="ellipse467" transform="rotate(20 .51667 .495)" cx=".51667" cy=".495" rx=".775" ry=".51667" fill="#fff" opacity=".8"/>
      </g>
      <g id="g475" transform="translate(6.35,2.54)">
        <circle id="circle471" cy="1.27" r="1.55" fill="url(#id1) none"/>
        <ellipse id="ellipse473" transform="rotate(20 .51667 .495)" cx=".51667" cy=".495" rx=".775" ry=".51667" fill="#fff" opacity=".8"/>
      </g>
      <g id="g481" transform="translate(12.7,2.54)">
        <circle id="circle477" cy="1.27" r="1.55" fill="url(#id1) none"/>
        <ellipse id="ellipse479" transform="rotate(20 .51667 .495)" cx=".51667" cy=".495" rx=".775" ry=".51667" fill="#fff" opacity=".8"/>
      </g>
      <g id="g487" transform="translate(19.05 2.54)">
        <circle id="circle483" cy="1.27" r="1.55" fill="url(#id1) none"/>
        <ellipse id="ellipse485" transform="rotate(20 .51667 .495)" cx=".51667" cy=".495" rx=".775" ry=".51667" fill="#fff" opacity=".8"/>
      </g>
      <g id="g501" transform="translate(-15.24 25.4)">
        <circle id="circle489" cx="2.54" cy="-7.62" r="9.25" fill="url(#id8) none"/>
        <circle id="circle491" cx="2.54" cy="-7.62" r="9.25" fill="url(#id9) none"/>
        <path id="path493" d="m-1.9566-13.809a7.65 7.65 0 0 1 5.2962-1.4191l0.64326 0.45211 0.8855 0.23727 0.78313-0.069913a7.65 7.65 0 0 1 3.8771 3.8771l-0.069913 0.78313 0.23727 0.8855 0.45211 0.64326a7.65 7.65 0 0 1-1.4191 5.2962l-0.71317 0.33102-0.64823 0.64823-0.33102 0.71317a7.65 7.65 0 0 1-5.2962 1.4191l-0.64326-0.45211-0.8855-0.23727-0.78313 0.069913a7.65 7.65 0 0 1-3.8771-3.8771l0.069913-0.78313-0.23727-0.8855-0.45211-0.64326a7.65 7.65 0 0 1 1.4191-5.2962l0.71317-0.33102 0.64823-0.64823z" fill="url(#id10) none"/>
        <path id="path495" d="m-1.3394-12.96a6.6 6.6 0 0 1 4.5693-1.2243l0.54547 0.43715 0.75814 0.20314 0.69097-0.10585a6.6 6.6 0 0 1 3.3449 3.3449l-0.10585 0.69097 0.20314 0.75814 0.43715 0.54547a6.6 6.6 0 0 1-1.2243 4.5693l-0.65132 0.25382-0.555 0.555-0.25382 0.65132a6.6 6.6 0 0 1-4.5693 1.2243l-0.54547-0.43715-0.75814-0.20314-0.69097 0.10585a6.6 6.6 0 0 1-3.3449-3.3449l0.10585-0.69097-0.20314-0.75814-0.43715-0.54547a6.6 6.6 0 0 1 1.2243-4.5693l0.65132-0.25382 0.555-0.555z" fill="url(#id11) none"/>
        <circle id="circle497" cx="2.54" cy="-7.62" r="5.75" fill="url(#id12) none"/>
        <line id="line499" x1="2.54" x2="-1.5259" y1="-7.62" y2="-11.686" stroke="#fff" stroke-width=".8"/>
      </g>
      <g id="g513" transform="translate(10.16,25.4)">
        <circle id="circle503" cx="2.54" cy="-7.62" r="7.15" fill="url(#id8) none"/>
        <circle id="circle505" cx="2.54" cy="-7.62" r="7.15" fill="url(#id14) none"/>
        <path id="path507" d="m-0.69282-12.07a5.5 5.5 0 0 1 3.8077-1.0203l0.46279 0.32345 0.63684 0.17064 0.56252-0.048716a5.5 5.5 0 0 1 2.7874 2.7874l-0.048716 0.56252 0.17064 0.63684 0.32345 0.46279a5.5 5.5 0 0 1-1.0203 3.8077l-0.51151 0.23907-0.4662 0.4662-0.23907 0.51151a5.5 5.5 0 0 1-3.8077 1.0203l-0.46279-0.32345-0.63684-0.17064-0.56252 0.048716a5.5 5.5 0 0 1-2.7874-2.7874l0.048716-0.56252-0.17064-0.63684-0.32345-0.46279a5.5 5.5 0 0 1 1.0203-3.8077l0.51151-0.23907 0.4662-0.4662z" fill="url(#id10) none"/>
        <path id="path509" d="m-0.25198-11.463a4.75 4.75 0 0 1 3.2885-0.88115l0.39295 0.31276 0.54586 0.14626 0.49668-0.074383a4.75 4.75 0 0 1 2.4073 2.4073l-0.074383 0.49668 0.14626 0.54586 0.31276 0.39295a4.75 4.75 0 0 1-0.88115 3.2885l-0.46733 0.18392-0.3996 0.3996-0.18392 0.46733a4.75 4.75 0 0 1-3.2885 0.88115l-0.39295-0.31276-0.54586-0.14626-0.49668 0.074383a4.75 4.75 0 0 1-2.4073-2.4073l0.074383-0.49668-0.14626-0.54586-0.31276-0.39295a4.75 4.75 0 0 1 0.88115-3.2885l0.46733-0.18392 0.3996-0.3996z" fill="url(#id11) none"/>
        <circle id="circle511" cx="2.54" cy="-7.62" r="4" fill="url(#id17) none"/>
      </g>
      <g id="g527" transform="translate(-15.24 50.8)">
        <circle id="circle515" cx="2.54" cy="-7.62" r="7.15" fill="url(#id8) none"/>
        <circle id="circle517" cx="2.54" cy="-7.62" r="7.15" fill="url(#id14) none"/>
        <path id="path519" d="m-0.69282-12.07a5.5 5.5 0 0 1 3.8077-1.0203l0.46279 0.32345 0.63684 0.17064 0.56252-0.048716a5.5 5.5 0 0 1 2.7874 2.7874l-0.048716 0.56252 0.17064 0.63684 0.32345 0.46279a5.5 5.5 0 0 1-1.0203 3.8077l-0.51151 0.23907-0.4662 0.4662-0.23907 0.51151a5.5 5.5 0 0 1-3.8077 1.0203l-0.46279-0.32345-0.63684-0.17064-0.56252 0.048716a5.5 5.5 0 0 1-2.7874-2.7874l0.048716-0.56252-0.17064-0.63684-0.32345-0.46279a5.5 5.5 0 0 1 1.0203-3.8077l0.51151-0.23907 0.4662-0.4662z" fill="url(#id10) none"/>
        <path id="path521" d="m-0.25198-11.463a4.75 4.75 0 0 1 3.2885-0.88115l0.39295 0.31276 0.54586 0.14626 0.49668-0.074383a4.75 4.75 0 0 1 2.4073 2.4073l-0.074383 0.49668 0.14626 0.54586 0.31276 0.39295a4.75 4.75 0 0 1-0.88115 3.2885l-0.46733 0.18392-0.3996 0.3996-0.18392 0.46733a4.75 4.75 0 0 1-3.2885 0.88115l-0.39295-0.31276-0.54586-0.14626-0.49668 0.074383a4.75 4.75 0 0 1-2.4073-2.4073l0.074383-0.49668-0.14626-0.54586-0.31276-0.39295a4.75 4.75 0 0 1 0.88115-3.2885l0.46733-0.18392 0.3996-0.3996z" fill="url(#id11) none"/>
        <circle id="circle523" cx="2.54" cy="-7.62" r="4" fill="url(#id17) none"/>
        <line id="line525" x1="2.54" x2="-.28843" y1="-7.62" y2="-10.448" stroke="#000" stroke-width=".8"/>
      </g>
      <g id="g541" transform="translate(10.16,50.8)">
        <circle id="circle529" cx="2.54" cy="-7.62" r="7.15" fill="url(#id8) none"/>
        <circle id="circle531" cx="2.54" cy="-7.62" r="7.15" fill="url(#id14) none"/>
        <path id="path533" d="m-0.69282-12.07a5.5 5.5 0 0 1 3.8077-1.0203l0.46279 0.32345 0.63684 0.17064 0.56252-0.048716a5.5 5.5 0 0 1 2.7874 2.7874l-0.048716 0.56252 0.17064 0.63684 0.32345 0.46279a5.5 5.5 0 0 1-1.0203 3.8077l-0.51151 0.23907-0.4662 0.4662-0.23907 0.51151a5.5 5.5 0 0 1-3.8077 1.0203l-0.46279-0.32345-0.63684-0.17064-0.56252 0.048716a5.5 5.5 0 0 1-2.7874-2.7874l0.048716-0.56252-0.17064-0.63684-0.32345-0.46279a5.5 5.5 0 0 1 1.0203-3.8077l0.51151-0.23907 0.4662-0.4662z" fill="url(#id10) none"/>
        <path id="path535" d="m-0.25198-11.463a4.75 4.75 0 0 1 3.2885-0.88115l0.39295 0.31276 0.54586 0.14626 0.49668-0.074383a4.75 4.75 0 0 1 2.4073 2.4073l-0.074383 0.49668 0.14626 0.54586 0.31276 0.39295a4.75 4.75 0 0 1-0.88115 3.2885l-0.46733 0.18392-0.3996 0.3996-0.18392 0.46733a4.75 4.75 0 0 1-3.2885 0.88115l-0.39295-0.31276-0.54586-0.14626-0.49668 0.074383a4.75 4.75 0 0 1-2.4073-2.4073l0.074383-0.49668-0.14626-0.54586-0.31276-0.39295a4.75 4.75 0 0 1 0.88115-3.2885l0.46733-0.18392 0.3996-0.3996z" fill="url(#id11) none"/>
        <circle id="circle537" cx="2.54" cy="-7.62" r="4" fill="url(#id17) none"/>
        <line id="line539" x1="2.54" x2="-.28843" y1="-7.62" y2="-10.448" stroke="#000" stroke-width=".8"/>
      </g>
      <g id="g551" transform="translate(-12.7,63.5)">
        <circle id="circle543" r="3.675" fill="url(#id28) none"/>
        <circle id="circle545" r="3.325" fill="url(#id29) none"/>
        <circle id="circle547" r="2.525" fill="#111"/>
        <path id="path549" d="m6.7356e-17 -1.1 3.98-0.39933c2.4875-0.24958 2.4875 3.2483 1.8362e-16 2.9987l-3.98-0.39933z" fill="url(#id30) none"/>
      </g>
      <g id="g561" transform="translate(12.7,63.5)">
        <circle id="circle553" r="3.675" fill="url(#id28) none"/>
        <circle id="circle555" r="3.325" fill="url(#id29) none"/>
        <circle id="circle557" r="2.525" fill="#111"/>
        <path id="path559" d="m6.7356e-17 -1.1 3.98-0.39933c2.4875-0.24958 2.4875 3.2483 1.8362e-16 2.9987l-3.98-0.39933z" fill="url(#id30) none"/>
      </g>
      <g id="g569" transform="translate(-17.78 73.66)">
        <path id="path563" d="m3.55 4.5169-0.013509 0.3094 0.15654 0.34178-0.070807 0.31939-0.28631 0.2436-0.11852 0.28612 0.030203 0.37471-0.17578 0.27591-0.35236 0.13098-0.20923 0.22833-0.099776 0.36244-0.25954 0.19915-0.37591 0.00257-0.27471 0.143-0.21772 0.30645-0.312 0.098375-0.35412-0.12615-0.30705 0.040424-0.3094 0.21351-0.32683-0.01427-0.28962-0.23966-0.30236-0.067031-0.36377 0.094811-0.30224-0.12519-0.19018-0.32426-0.2612-0.1664-0.37426-0.035323-0.2412-0.22102-0.067807-0.36975-0.18853-0.2457-0.33961-0.1612-0.15106-0.29018 0.062745-0.37065-0.093128-0.29536-0.26399-0.26763-0.042701-0.32435 0.18573-0.32683 0.013509-0.3094-0.15654-0.34178 0.070807-0.31939 0.28631-0.2436 0.11852-0.28612-0.030203-0.37471 0.17578-0.27591 0.35236-0.13098 0.20923-0.22833 0.099776-0.36244 0.25954-0.19915 0.37591-0.00257 0.27471-0.143 0.21772-0.30645 0.312-0.098375 0.35412 0.12615 0.30705-0.040424 0.3094-0.21351 0.32683 0.01427 0.28962 0.23966 0.30236 0.067031 0.36377-0.094811 0.30224 0.12519 0.19018 0.32426 0.2612 0.1664 0.37426 0.035323 0.2412 0.22102 0.067807 0.36975 0.18853 0.2457 0.33961 0.1612 0.15106 0.29018-0.062745 0.37065 0.093128 0.29536 0.26399 0.26763 0.042701 0.32435z" fill="url(#id28) none"/>
        <circle id="circle565" cy="4.5169" r="3.15" fill="url(#id35) none"/>
        <circle id="circle567" cy="4.5169" r="2.35" fill="url(#id36) none"/>
      </g>
      <g id="g577" transform="translate(-7.62 73.66)">
        <path id="path571" d="m3.55 4.5169-0.013509 0.3094 0.15654 0.34178-0.070807 0.31939-0.28631 0.2436-0.11852 0.28612 0.030203 0.37471-0.17578 0.27591-0.35236 0.13098-0.20923 0.22833-0.099776 0.36244-0.25954 0.19915-0.37591 0.00257-0.27471 0.143-0.21772 0.30645-0.312 0.098375-0.35412-0.12615-0.30705 0.040424-0.3094 0.21351-0.32683-0.01427-0.28962-0.23966-0.30236-0.067031-0.36377 0.094811-0.30224-0.12519-0.19018-0.32426-0.2612-0.1664-0.37426-0.035323-0.2412-0.22102-0.067807-0.36975-0.18853-0.2457-0.33961-0.1612-0.15106-0.29018 0.062745-0.37065-0.093128-0.29536-0.26399-0.26763-0.042701-0.32435 0.18573-0.32683 0.013509-0.3094-0.15654-0.34178 0.070807-0.31939 0.28631-0.2436 0.11852-0.28612-0.030203-0.37471 0.17578-0.27591 0.35236-0.13098 0.20923-0.22833 0.099776-0.36244 0.25954-0.19915 0.37591-0.00257 0.27471-0.143 0.21772-0.30645 0.312-0.098375 0.35412 0.12615 0.30705-0.040424 0.3094-0.21351 0.32683 0.01427 0.28962 0.23966 0.30236 0.067031 0.36377-0.094811 0.30224 0.12519 0.19018 0.32426 0.2612 0.1664 0.37426 0.035323 0.2412 0.22102 0.067807 0.36975 0.18853 0.2457 0.33961 0.1612 0.15106 0.29018-0.062745 0.37065 0.093128 0.29536 0.26399 0.26763 0.042701 0.32435z" fill="url(#id28) none"/>
        <circle id="circle573" cy="4.5169" r="3.15" fill="url(#id35) none"/>
        <circle id="circle575" cy="4.5169" r="2.35" fill="url(#id36) none"/>
      </g>
      <g id="g585" transform="translate(-12.7,96.52)">
        <path id="path579" d="m3.55-4.5169-0.013509 0.3094 0.15654 0.34178-0.070807 0.31939-0.28631 0.2436-0.11852 0.28612 0.030203 0.37471-0.17578 0.27591-0.35236 0.13098-0.20923 0.22833-0.099776 0.36244-0.25954 0.19915-0.37591 0.00257-0.27471 0.143-0.21772 0.30645-0.312 0.098375-0.35412-0.12615-0.30705 0.040424-0.3094 0.21351-0.32683-0.01427-0.28962-0.23966-0.30236-0.067031-0.36377 0.094811-0.30224-0.12519-0.19018-0.32426-0.2612-0.1664-0.37426-0.035323-0.2412-0.22102-0.067807-0.36975-0.18853-0.2457-0.33961-0.1612-0.15106-0.29018 0.062745-0.37065-0.093128-0.29536-0.26399-0.26763-0.042701-0.32435 0.18573-0.32683 0.013509-0.3094-0.15654-0.34178 0.070807-0.31939 0.28631-0.2436 0.11852-0.28612-0.030203-0.37471 0.17578-0.27591 0.35236-0.13098 0.20923-0.22833 0.099776-0.36244 0.25954-0.19915 0.37591-0.00257 0.27471-0.143 0.21772-0.30645 0.312-0.098375 0.35412 0.12615 0.30705-0.040424 0.3094-0.21351 0.32683 0.01427 0.28962 0.23966 0.30236 0.067031 0.36377-0.094811 0.30224 0.12519 0.19018 0.32426 0.2612 0.1664 0.37426 0.035323 0.2412 0.22102 0.067807 0.36975 0.18853 0.2457 0.33961 0.1612 0.15106 0.29018-0.062745 0.37065 0.093128 0.29536 0.26399 0.26763 0.042701 0.32435z" fill="url(#id28) none"/>
        <circle id="circle581" cy="-4.5169" r="3.15" fill="url(#id35) none"/>
        <circle id="circle583" cy="-4.5169" r="2.35" fill="url(#id36) none"/>
      </g>
      <g id="g591" transform="translate(-21.59,83.82)">
        <circle id="circle587" cy="1.27" r="1.55" fill="url(#id1) none"/>
        <ellipse id="ellipse589" transform="rotate(20 .51667 .495)" cx=".51667" cy=".495" rx=".775" ry=".51667" fill="#fff" opacity=".8"/>
      </g>
      <g id="g597" transform="translate(-3.81 83.82)">
        <circle id="circle593" cy="1.27" r="1.55" fill="url(#id1) none"/>
        <ellipse id="ellipse595" transform="rotate(20 .51667 .495)" cx=".51667" cy=".495" rx=".775" ry=".51667" fill="#fff" opacity=".8"/>
      </g>
      <g id="g605" transform="translate(12.7,73.66)">
        <path id="path599" d="m3.55 4.5169-0.013509 0.3094 0.15654 0.34178-0.070807 0.31939-0.28631 0.2436-0.11852 0.28612 0.030203 0.37471-0.17578 0.27591-0.35236 0.13098-0.20923 0.22833-0.099776 0.36244-0.25954 0.19915-0.37591 0.00257-0.27471 0.143-0.21772 0.30645-0.312 0.098375-0.35412-0.12615-0.30705 0.040424-0.3094 0.21351-0.32683-0.01427-0.28962-0.23966-0.30236-0.067031-0.36377 0.094811-0.30224-0.12519-0.19018-0.32426-0.2612-0.1664-0.37426-0.035323-0.2412-0.22102-0.067807-0.36975-0.18853-0.2457-0.33961-0.1612-0.15106-0.29018 0.062745-0.37065-0.093128-0.29536-0.26399-0.26763-0.042701-0.32435 0.18573-0.32683 0.013509-0.3094-0.15654-0.34178 0.070807-0.31939 0.28631-0.2436 0.11852-0.28612-0.030203-0.37471 0.17578-0.27591 0.35236-0.13098 0.20923-0.22833 0.099776-0.36244 0.25954-0.19915 0.37591-0.00257 0.27471-0.143 0.21772-0.30645 0.312-0.098375 0.35412 0.12615 0.30705-0.040424 0.3094-0.21351 0.32683 0.01427 0.28962 0.23966 0.30236 0.067031 0.36377-0.094811 0.30224 0.12519 0.19018 0.32426 0.2612 0.1664 0.37426 0.035323 0.2412 0.22102 0.067807 0.36975 0.18853 0.2457 0.33961 0.1612 0.15106 0.29018-0.062745 0.37065 0.093128 0.29536 0.26399 0.26763 0.042701 0.32435z" fill="url(#id28) none"/>
        <circle id="circle601" cy="4.5169" r="3.15" fill="url(#id35) none"/>
        <circle id="circle603" cy="4.5169" r="2.35" fill="url(#id36) none"/>
      </g>
      <g id="g613" transform="translate(7.62 96.52)">
        <path id="path607" d="m3.55-4.5169-0.013509 0.3094 0.15654 0.34178-0.070807 0.31939-0.28631 0.2436-0.11852 0.28612 0.030203 0.37471-0.17578 0.27591-0.35236 0.13098-0.20923 0.22833-0.099776 0.36244-0.25954 0.19915-0.37591 0.00257-0.27471 0.143-0.21772 0.30645-0.312 0.098375-0.35412-0.12615-0.30705 0.040424-0.3094 0.21351-0.32683-0.01427-0.28962-0.23966-0.30236-0.067031-0.36377 0.094811-0.30224-0.12519-0.19018-0.32426-0.2612-0.1664-0.37426-0.035323-0.2412-0.22102-0.067807-0.36975-0.18853-0.2457-0.33961-0.1612-0.15106-0.29018 0.062745-0.37065-0.093128-0.29536-0.26399-0.26763-0.042701-0.32435 0.18573-0.32683 0.013509-0.3094-0.15654-0.34178 0.070807-0.31939 0.28631-0.2436 0.11852-0.28612-0.030203-0.37471 0.17578-0.27591 0.35236-0.13098 0.20923-0.22833 0.099776-0.36244 0.25954-0.19915 0.37591-0.00257 0.27471-0.143 0.21772-0.30645 0.312-0.098375 0.35412 0.12615 0.30705-0.040424 0.3094-0.21351 0.32683 0.01427 0.28962 0.23966 0.30236 0.067031 0.36377-0.094811 0.30224 0.12519 0.19018 0.32426 0.2612 0.1664 0.37426 0.035323 0.2412 0.22102 0.067807 0.36975 0.18853 0.2457 0.33961 0.1612 0.15106 0.29018-0.062745 0.37065 0.093128 0.29536 0.26399 0.26763 0.042701 0.32435z" fill="url(#id28) none"/>
        <circle id="circle609" cy="-4.5169" r="3.15" fill="url(#id35) none"/>
        <circle id="circle611" cy="-4.5169" r="2.35" fill="url(#id36) none"/>
      </g>
      <g id="g621" transform="translate(17.78 96.52)">
        <path id="path615" d="m3.55-4.5169-0.013509 0.3094 0.15654 0.34178-0.070807 0.31939-0.28631 0.2436-0.11852 0.28612 0.030203 0.37471-0.17578 0.27591-0.35236 0.13098-0.20923 0.22833-0.099776 0.36244-0.25954 0.19915-0.37591 0.00257-0.27471 0.143-0.21772 0.30645-0.312 0.098375-0.35412-0.12615-0.30705 0.040424-0.3094 0.21351-0.32683-0.01427-0.28962-0.23966-0.30236-0.067031-0.36377 0.094811-0.30224-0.12519-0.19018-0.32426-0.2612-0.1664-0.37426-0.035323-0.2412-0.22102-0.067807-0.36975-0.18853-0.2457-0.33961-0.1612-0.15106-0.29018 0.062745-0.37065-0.093128-0.29536-0.26399-0.26763-0.042701-0.32435 0.18573-0.32683 0.013509-0.3094-0.15654-0.34178 0.070807-0.31939 0.28631-0.2436 0.11852-0.28612-0.030203-0.37471 0.17578-0.27591 0.35236-0.13098 0.20923-0.22833 0.099776-0.36244 0.25954-0.19915 0.37591-0.00257 0.27471-0.143 0.21772-0.30645 0.312-0.098375 0.35412 0.12615 0.30705-0.040424 0.3094-0.21351 0.32683 0.01427 0.28962 0.23966 0.30236 0.067031 0.36377-0.094811 0.30224 0.12519 0.19018 0.32426 0.2612 0.1664 0.37426 0.035323 0.2412 0.22102 0.067807 0.36975 0.18853 0.2457 0.33961 0.1612 0.15106 0.29018-0.062745 0.37065 0.093128 0.29536 0.26399 0.26763 0.042701 0.32435z" fill="url(#id28) none"/>
        <circle id="circle617" cy="-4.5169" r="3.15" fill="url(#id35) none"/>
        <circle id="circle619" cy="-4.5169" r="2.35" fill="url(#id36) none"/>
      </g>
      <g id="g627" transform="translate(21.59,83.82)">
        <circle id="circle623" cy="1.27" r="1.55" fill="url(#id1) none"/>
        <ellipse id="ellipse625" transform="rotate(20 .51667 .495)" cx=".51667" cy=".495" rx=".775" ry=".51667" fill="#fff" opacity=".8"/>
      </g>
      <g id="g633" transform="translate(3.81 83.82)">
        <circle id="circle629" cy="1.27" r="1.55" fill="url(#id1) none"/>
        <ellipse id="ellipse631" transform="rotate(20 .51667 .495)" cx=".51667" cy=".495" rx=".775" ry=".51667" fill="#fff" opacity=".8"/>
      </g>
    </g>
  </g>
</svg>
