<?xml version="1.0" encoding="UTF-8"?>
<svg id="svg576" width="41.3mm" height="129.5mm" version="1.1" viewBox="-.5 -.5 41.3 129.5" xmlns="http://www.w3.org/2000/svg">
  <defs id="defs303">
    <linearGradient id="id1" x1="1" x2="0" y2="1">
      <stop id="stop3" stop-color="#fff" offset="-1"/>
      <stop id="stop5" offset="2"/>
    </linearGradient>
    <radialGradient id="id2">
      <stop id="stop8" offset=".74603"/>
      <stop id="stop10" stop-color="#fff" offset=".87302"/>
      <stop id="stop12" stop-color="#444" offset="1"/>
    </radialGradient>
    <linearGradient id="id3" x1="1" x2="0" y2="1">
      <stop id="stop15" offset="0"/>
      <stop id="stop17" stop-color="#333" offset="1"/>
    </linearGradient>
    <radialGradient id="id5">
      <stop id="stop25" offset=".66667"/>
      <stop id="stop27" stop-color="#fff" offset=".83333"/>
      <stop id="stop29" stop-color="#444" offset="1"/>
    </radialGradient>
    <radialGradient id="id6" cx=".65" cy=".6" r=".6">
      <stop id="stop32" stop-color="#eee" offset="0"/>
      <stop id="stop34" stop-color="#111" offset="1"/>
    </radialGradient>
    <linearGradient id="id7" x1=".70711" x2="0" y2=".70711">
      <stop id="stop37" stop-color="#666" offset="0"/>
      <stop id="stop39" stop-color="#191919" offset="1"/>
    </linearGradient>
    <radialGradient id="id8">
      <stop id="stop42" offset=".65385"/>
      <stop id="stop44" stop-opacity="0" offset=".88462"/>
    </radialGradient>
    <linearGradient id="id9" x1=".70711" x2="0" y2=".70711">
      <stop id="stop47" stop-color="#666" offset="0"/>
      <stop id="stop49" stop-color="#686868" offset=".04"/>
      <stop id="stop51" stop-color="#212121" offset="1"/>
    </linearGradient>
    <linearGradient id="id10" x1=".70711" x2="0" y2=".70711">
      <stop id="stop54" stop-color="#777" offset="0"/>
      <stop id="stop56" stop-color="#555" offset="1"/>
    </linearGradient>
    <linearGradient id="id11" x1=".70711" x2="0" y2=".70711">
      <stop id="stop59" stop-color="#fff" offset="0"/>
      <stop id="stop61" stop-color="#ccc" offset="1"/>
    </linearGradient>
    <radialGradient id="id54">
      <stop id="stop298" stop-color="#fff" offset="0"/>
      <stop id="stop300" stop-color="green" offset="1"/>
    </radialGradient>
  </defs>
  <rect id="background" width="40.3" height="128.5" fill="#fff"/>
  <g id="outline" fill="none" stroke="#000">
    <rect id="rect306" x="-.25" y="-.25" width="40.8" height="129" stroke-width=".5"/>
  </g>
  <g id="stencil" font-family="Ubuntu" font-size="3">
    <path id="path1396" d="m15.738 5.82q-0.05-0.12-0.135-0.305-0.08-0.185-0.175-0.4t-0.205-0.44q-0.105-0.23-0.2-0.43-0.095-0.205-0.18-0.365-0.08-0.16-0.13-0.245-0.055 0.59-0.09 1.28-0.035 0.685-0.06 1.385h-0.475q0.02-0.45 0.045-0.905 0.025-0.46 0.055-0.9 0.035-0.445 0.07-0.865 0.04-0.42 0.085-0.795h0.425q0.135 0.22 0.29 0.52t0.31 0.63q0.155 0.325 0.3 0.655 0.145 0.325 0.265 0.595 0.12-0.27 0.265-0.595 0.145-0.33 0.3-0.655 0.155-0.33 0.31-0.63t0.29-0.52h0.425q0.17 1.675 0.255 3.465h-0.475q-0.025-0.7-0.06-1.385-0.035-0.69-0.09-1.28-0.05 0.085-0.135 0.245-0.08 0.16-0.175 0.365-0.095 0.2-0.205 0.43-0.105 0.225-0.2 0.44t-0.18 0.4q-0.08 0.185-0.13 0.305z"/>
    <path id="path1398" d="m18.973 6.3h-0.465v-2.6h0.465zm-0.235-3.07q-0.125 0-0.215-0.08-0.085-0.085-0.085-0.225t0.085-0.22q0.09-0.085 0.215-0.085t0.21 0.085q0.09 0.08 0.09 0.22t-0.09 0.225q-0.085 0.08-0.21 0.08z"/>
    <path id="path1400" d="m21.328 6.3q-0.055-0.11-0.135-0.245t-0.175-0.275q-0.095-0.145-0.195-0.285t-0.195-0.265q-0.095 0.125-0.195 0.27-0.1 0.14-0.195 0.285-0.09 0.14-0.17 0.275t-0.135 0.24h-0.48q0.175-0.34 0.415-0.69 0.245-0.355 0.485-0.675l-0.86-1.235h0.525l0.62 0.91 0.625-0.91h0.495l-0.84 1.205q0.24 0.325 0.49 0.69 0.255 0.36 0.43 0.705z"/>
    <path id="path1402" d="m22.077 5.005q0-0.345 0.1-0.6 0.1-0.26 0.265-0.43t0.38-0.255 0.44-0.085q0.525 0 0.805 0.33 0.28 0.325 0.28 0.995 0 0.03 0 0.08 0 0.045-5e-3 0.085h-1.78q0.03 0.405 0.235 0.615t0.64 0.21q0.245 0 0.41-0.04 0.17-0.045 0.255-0.085l0.065 0.39q-0.085 0.045-0.3 0.095-0.21 0.05-0.48 0.05-0.34 0-0.59-0.1-0.245-0.105-0.405-0.285t-0.24-0.425q-0.075-0.25-0.075-0.545zm1.785-0.255q5e-3 -0.315-0.16-0.515-0.16-0.205-0.445-0.205-0.16 0-0.285 0.065-0.12 0.06-0.205 0.16t-0.135 0.23q-0.045 0.13-0.06 0.265z"/>
    <path id="path1404" d="m25.977 3.645q0.06 0 0.135 0.01 0.08 5e-3 0.155 0.02 0.075 0.01 0.135 0.025 0.065 0.01 0.095 0.02l-0.08 0.405q-0.055-0.02-0.185-0.045-0.125-0.03-0.325-0.03-0.13 0-0.26 0.03-0.125 0.025-0.165 0.035v2.185h-0.465v-2.49q0.165-0.06 0.41-0.11 0.245-0.055 0.55-0.055z"/>
    <path id="path311" transform="translate(12.65 119.5) scale(.15)" d="m23.274 0c-12.804 0-23.274 10.47-23.274 23.274 0 12.804 10.47 23.274 23.274 23.274 6.2817 0 11.38-2.5486 15.731-6.2455 1.5387-1.3073 3.0762-2.7877 4.6583-4.3876l-0.0086-5.8693-5.9894 0.0026c-1.4839 1.5057-2.8467 2.8283-4.0804 3.8765-3.5126 2.9845-6.0494 4.2541-10.311 4.2541-8.2813 0-14.905-6.6235-14.905-14.905 0-8.2813 6.6235-14.905 14.905-14.905 4.2612 0 6.7981 1.2697 10.311 4.2541 1.2337 1.0482 2.5965 2.3707 4.0804 3.8765l5.9894 0.0026 0.0086-5.8693c-1.5821-1.5999-3.1196-3.0803-4.6583-4.3876-4.351-3.6969-9.4489-6.2455-15.731-6.2455zm53.451 0c-6.2815 1.0197e-4 -11.379 2.5487-15.73 6.2455-1.6075 1.3659-3.2135 2.9188-4.8712 4.602h12.572c2.4765-1.7176 4.7403-2.4782 8.0292-2.4783h3.82e-4c6.2002 0 11.47 3.7129 13.728 9.0545l-6.0416-0.07531-8.5851-3.0797-28.741 3.81e-4v5.6456h-22.686v6.7186h22.686v5.6456l28.741 3.82e-4 8.5851-3.0797 6.0416-0.07531c-2.2576 5.3415-7.5279 9.0545-13.728 9.0545h-3.82e-4c-3.2889-5.9e-5 -5.5527-0.76071-8.0292-2.4783h-12.572c1.6577 1.6832 3.2637 3.2361 4.8712 4.602 4.3509 3.6968 9.4487 6.2454 15.73 6.2455h3.82e-4c12.804 0 23.274-10.47 23.274-23.274-8e-6 -12.804-10.47-23.274-23.274-23.274zm-59.712 19.295-2.8907 3.9786 2.8907 3.9786 4.6773-1.5197v-4.9178z"/>
    <path id="path316" d="m6.18 21.08h25.4v20.32" fill="none" stroke="#000" stroke-width=".6"/>
    <path id="path325" d="m6.18 41.4h25.4v20.32" fill="none" stroke="#000" stroke-width=".6"/>
    <path id="path334" d="m6.18 61.72h25.4v20.32" fill="none" stroke="#000" stroke-width=".6"/>
    <path id="path343" d="m6.18 82.04h25.4v16.62" fill="none" stroke="#000" stroke-width=".6"/>
    <path id="path352" d="m6.18 102.36h21.7" fill="none" stroke="#000" stroke-width=".6"/>
    <g id="g358" transform="translate(31.58,102.36)">
      <path id="path_umyuzmobqz" transform="matrix(.26458 0 0 .26458 -32.08 -102.86)" d="m109.34 371.19a5.6693 5.6693 0 0 0-5.6699 5.6699v45.354a5.6693 5.6693 0 0 0 5.6699 5.6699h23.811a5.6693 5.6693 0 0 0 5.6699-5.6699v-45.354a5.6693 5.6693 0 0 0-5.6699-5.6699zm11.906 4.3457a13.229 13.229 0 0 1 0 26.457 13.229 13.229 0 0 1 0-26.457zm-7.082 35.426c0.50645 0 0.9837 0.0879 1.4297 0.26172 0.45355 0.17386 0.8493 0.43354 1.1895 0.78125 0.34015 0.34016 0.60815 0.76724 0.80468 1.2812 0.2041 0.51402 0.30664 1.1085 0.30664 1.7812 0 0.67276-0.10254 1.2653-0.30664 1.7793-0.19653 0.51402-0.46453 0.94525-0.80468 1.293-0.34016 0.34016-0.73591 0.59762-1.1895 0.77148-0.44598 0.17386-0.92323 0.25977-1.4297 0.25977-0.51402 0-1.0018-0.0859-1.4629-0.25977-0.45354-0.17386-0.85345-0.43132-1.2012-0.77148-0.34015-0.34772-0.61231-0.77895-0.8164-1.293-0.19654-0.51402-0.29493-1.1065-0.29493-1.7793 0-0.67275 0.0984-1.2672 0.29493-1.7812 0.20409-0.51401 0.47625-0.94109 0.8164-1.2812 0.34772-0.34771 0.74763-0.60739 1.2012-0.78125 0.46111-0.17386 0.94888-0.26172 1.4629-0.26172zm5.3066 0.18164h1.0996v4.8086c0 0.78614 0.17376 1.3557 0.52148 1.7109 0.34772 0.35527 0.80196 0.5332 1.3613 0.5332 0.27968 0 0.53299-0.0419 0.75976-0.125 0.23433-0.0907 0.43527-0.22679 0.60157-0.4082 0.1663-0.18142 0.29405-0.41172 0.38476-0.69141 0.0907-0.28724 0.13672-0.62646 0.13672-1.0195v-4.8086h1.0996v4.9316c0 0.43842-0.0607 0.84665-0.18164 1.2246-0.11339 0.37795-0.29547 0.70664-0.54492 0.98632-0.24189 0.27213-0.55174 0.48775-0.92969 0.64649-0.37039 0.15874-0.81216 0.23828-1.3262 0.23828-0.51402 0-0.95994-0.0795-1.3379-0.23828-0.37796-0.15874-0.6878-0.37436-0.92969-0.64649-0.24189-0.27968-0.42398-0.60837-0.54492-0.98632-0.11339-0.37796-0.16992-0.78619-0.16992-1.2246zm7.0644 0h6.043v0.95313h-2.4727v6.9043h-1.0996v-6.9043h-2.4707zm-12.393 0.78321c-0.40063 0-0.7648 0.0754-1.0898 0.22656-0.31748 0.14362-0.58964 0.35092-0.81641 0.62305-0.21921 0.27212-0.38882 0.60497-0.50976 0.99804-0.12095 0.38552-0.18164 0.81675-0.18164 1.293s0.0607 0.90967 0.18164 1.3027c0.12094 0.38551 0.29055 0.7142 0.50976 0.98633 0.22677 0.27212 0.49893 0.48553 0.81641 0.63671 0.32504 0.14363 0.68921 0.21485 1.0898 0.21485s0.75869-0.0712 1.0762-0.21485c0.31748-0.15118 0.58548-0.36459 0.80469-0.63671 0.22677-0.27213 0.40054-0.60082 0.52149-0.98633 0.12094-0.39307 0.18164-0.82652 0.18164-1.3027s-0.0607-0.90745-0.18164-1.293c-0.12095-0.39307-0.29472-0.72592-0.52149-0.99804-0.21921-0.27213-0.48721-0.47943-0.80469-0.62305-0.31748-0.15118-0.67554-0.22656-1.0762-0.22656z" style=""/>
    </g>
  </g>
  <g id="throughholes">
    <circle id="circle364" cx="7.45" cy="3" r="1.7"/>
    <circle id="circle366" cx="7.45" cy="125.5" r="1.7"/>
    <circle id="circle368" cx="32.85" cy="3" r="1.7"/>
    <circle id="circle370" cx="32.85" cy="125.5" r="1.7"/>
    <circle id="circle372" cx="6.18" cy="21.08" r="3.15"/>
    <circle id="circle376" cx="31.58" cy="21.08" r="3.65"/>
    <circle id="circle380" cx="6.18" cy="41.4" r="3.15"/>
    <circle id="circle384" cx="31.58" cy="41.4" r="3.65"/>
    <circle id="circle388" cx="6.18" cy="61.72" r="3.15"/>
    <circle id="circle392" cx="31.58" cy="61.72" r="3.65"/>
    <circle id="circle396" cx="6.18" cy="82.04" r="3.15"/>
    <circle id="circle400" cx="31.58" cy="82.04" r="3.65"/>
    <circle id="circle404" cx="6.18" cy="102.36" r="3.15"/>
    <circle id="circle408" cx="31.58" cy="102.36" r="3.15"/>
  </g>
  <g id="cosmetics">
    <g id="cosmetics_offset" transform="translate(20.15,16)">
      <g id="g420" transform="translate(-13.97,5.08)">
        <path id="path414" d="m3.55 0-0.013509 0.3094 0.15654 0.34178-0.070807 0.31939-0.28631 0.2436-0.11852 0.28612 0.030203 0.37471-0.17578 0.27591-0.35236 0.13098-0.20923 0.22833-0.099776 0.36244-0.25954 0.19915-0.37591 0.00257-0.27471 0.143-0.21772 0.30645-0.312 0.098375-0.35412-0.12615-0.30705 0.040424-0.3094 0.21351-0.32683-0.01427-0.28962-0.23966-0.30236-0.067031-0.36377 0.094811-0.30224-0.12519-0.19018-0.32426-0.2612-0.1664-0.37426-0.035323-0.2412-0.22102-0.067807-0.36975-0.18853-0.2457-0.33961-0.1612-0.15106-0.29018 0.062745-0.37065-0.093128-0.29536-0.26399-0.26763-0.042701-0.32435 0.18573-0.32683 0.013509-0.3094-0.15654-0.34178 0.070807-0.31939 0.28631-0.2436 0.11852-0.28612-0.030203-0.37471 0.17578-0.27591 0.35236-0.13098 0.20923-0.22833 0.099776-0.36244 0.25954-0.19915 0.37591-0.00257 0.27471-0.143 0.21772-0.30645 0.312-0.098375 0.35412 0.12615 0.30705-0.040424 0.3094-0.21351 0.32683 0.01427 0.28962 0.23966 0.30236 0.067031 0.36377-0.094811 0.30224 0.12519 0.19018 0.32426 0.2612 0.1664 0.37426 0.035323 0.2412 0.22102 0.067807 0.36975 0.18853 0.2457 0.33961 0.1612 0.15106 0.29018-0.062745 0.37065 0.093128 0.29536 0.26399 0.26763 0.042701 0.32435z" fill="url(#id1) none"/>
        <circle id="circle416" r="3.15" fill="url(#id2) none"/>
        <circle id="circle418" r="2.35" fill="url(#id3) none"/>
      </g>
      <g id="g430" transform="translate(-3.81 5.08)">
        <circle id="circle422" r="2.75" fill="url(#id1) none"/>
        <circle id="circle424" r="2.4" fill="url(#id5) none"/>
        <circle id="circle426" r="1.6" fill="#111"/>
        <path id="path428" d="m1.1 0 0.39933 3.98c0.24958 2.4875-3.2483 2.4875-2.9987 3.6723e-16l0.39933-3.98z" fill="url(#id6) none"/>
      </g>
      <g id="g444" transform="translate(8.89 12.7)">
        <circle id="circle432" cx="2.54" cy="-7.62" r="7.15" fill="url(#id7) none"/>
        <circle id="circle434" cx="2.54" cy="-7.62" r="7.15" fill="url(#id8) none"/>
        <path id="path436" d="m-0.69282-12.07a5.5 5.5 0 0 1 3.8077-1.0203l0.46279 0.32345 0.63684 0.17064 0.56252-0.048716a5.5 5.5 0 0 1 2.7874 2.7874l-0.048716 0.56252 0.17064 0.63684 0.32345 0.46279a5.5 5.5 0 0 1-1.0203 3.8077l-0.51151 0.23907-0.4662 0.4662-0.23907 0.51151a5.5 5.5 0 0 1-3.8077 1.0203l-0.46279-0.32345-0.63684-0.17064-0.56252 0.048716a5.5 5.5 0 0 1-2.7874-2.7874l0.048716-0.56252-0.17064-0.63684-0.32345-0.46279a5.5 5.5 0 0 1 1.0203-3.8077l0.51151-0.23907 0.4662-0.4662z" fill="url(#id9) none"/>
        <path id="path438" d="m-0.25198-11.463a4.75 4.75 0 0 1 3.2885-0.88115l0.39295 0.31276 0.54586 0.14626 0.49668-0.074383a4.75 4.75 0 0 1 2.4073 2.4073l-0.074383 0.49668 0.14626 0.54586 0.31276 0.39295a4.75 4.75 0 0 1-0.88115 3.2885l-0.46733 0.18392-0.3996 0.3996-0.18392 0.46733a4.75 4.75 0 0 1-3.2885 0.88115l-0.39295-0.31276-0.54586-0.14626-0.49668 0.074383a4.75 4.75 0 0 1-2.4073-2.4073l0.074383-0.49668-0.14626-0.54586-0.31276-0.39295a4.75 4.75 0 0 1 0.88115-3.2885l0.46733-0.18392 0.3996-0.3996z" fill="url(#id10) none"/>
        <circle id="circle440" cx="2.54" cy="-7.62" r="4" fill="url(#id11) none"/>
        <line id="line442" x1="2.54" x2="-.28843" y1="-7.62" y2="-10.448" stroke="#000" stroke-width=".8"/>
      </g>
      <g id="g452" transform="translate(-13.97,25.4)">
        <path id="path446" d="m3.55 0-0.013509 0.3094 0.15654 0.34178-0.070807 0.31939-0.28631 0.2436-0.11852 0.28612 0.030203 0.37471-0.17578 0.27591-0.35236 0.13098-0.20923 0.22833-0.099776 0.36244-0.25954 0.19915-0.37591 0.00257-0.27471 0.143-0.21772 0.30645-0.312 0.098375-0.35412-0.12615-0.30705 0.040424-0.3094 0.21351-0.32683-0.01427-0.28962-0.23966-0.30236-0.067031-0.36377 0.094811-0.30224-0.12519-0.19018-0.32426-0.2612-0.1664-0.37426-0.035323-0.2412-0.22102-0.067807-0.36975-0.18853-0.2457-0.33961-0.1612-0.15106-0.29018 0.062745-0.37065-0.093128-0.29536-0.26399-0.26763-0.042701-0.32435 0.18573-0.32683 0.013509-0.3094-0.15654-0.34178 0.070807-0.31939 0.28631-0.2436 0.11852-0.28612-0.030203-0.37471 0.17578-0.27591 0.35236-0.13098 0.20923-0.22833 0.099776-0.36244 0.25954-0.19915 0.37591-0.00257 0.27471-0.143 0.21772-0.30645 0.312-0.098375 0.35412 0.12615 0.30705-0.040424 0.3094-0.21351 0.32683 0.01427 0.28962 0.23966 0.30236 0.067031 0.36377-0.094811 0.30224 0.12519 0.19018 0.32426 0.2612 0.1664 0.37426 0.035323 0.2412 0.22102 0.067807 0.36975 0.18853 0.2457 0.33961 0.1612 0.15106 0.29018-0.062745 0.37065 0.093128 0.29536 0.26399 0.26763 0.042701 0.32435z" fill="url(#id1) none"/>
        <circle id="circle448" r="3.15" fill="url(#id2) none"/>
        <circle id="circle450" r="2.35" fill="url(#id3) none"/>
      </g>
      <g id="g462" transform="translate(-3.81 25.4)">
        <circle id="circle454" r="2.75" fill="url(#id1) none"/>
        <circle id="circle456" r="2.4" fill="url(#id5) none"/>
        <circle id="circle458" r="1.6" fill="#111"/>
        <path id="path460" d="m1.1 0 0.39933 3.98c0.24958 2.4875-3.2483 2.4875-2.9987 3.6723e-16l0.39933-3.98z" fill="url(#id6) none"/>
      </g>
      <g id="g476" transform="translate(8.89 33.02)">
        <circle id="circle464" cx="2.54" cy="-7.62" r="7.15" fill="url(#id7) none"/>
        <circle id="circle466" cx="2.54" cy="-7.62" r="7.15" fill="url(#id8) none"/>
        <path id="path468" d="m-0.69282-12.07a5.5 5.5 0 0 1 3.8077-1.0203l0.46279 0.32345 0.63684 0.17064 0.56252-0.048716a5.5 5.5 0 0 1 2.7874 2.7874l-0.048716 0.56252 0.17064 0.63684 0.32345 0.46279a5.5 5.5 0 0 1-1.0203 3.8077l-0.51151 0.23907-0.4662 0.4662-0.23907 0.51151a5.5 5.5 0 0 1-3.8077 1.0203l-0.46279-0.32345-0.63684-0.17064-0.56252 0.048716a5.5 5.5 0 0 1-2.7874-2.7874l0.048716-0.56252-0.17064-0.63684-0.32345-0.46279a5.5 5.5 0 0 1 1.0203-3.8077l0.51151-0.23907 0.4662-0.4662z" fill="url(#id9) none"/>
        <path id="path470" d="m-0.25198-11.463a4.75 4.75 0 0 1 3.2885-0.88115l0.39295 0.31276 0.54586 0.14626 0.49668-0.074383a4.75 4.75 0 0 1 2.4073 2.4073l-0.074383 0.49668 0.14626 0.54586 0.31276 0.39295a4.75 4.75 0 0 1-0.88115 3.2885l-0.46733 0.18392-0.3996 0.3996-0.18392 0.46733a4.75 4.75 0 0 1-3.2885 0.88115l-0.39295-0.31276-0.54586-0.14626-0.49668 0.074383a4.75 4.75 0 0 1-2.4073-2.4073l0.074383-0.49668-0.14626-0.54586-0.31276-0.39295a4.75 4.75 0 0 1 0.88115-3.2885l0.46733-0.18392 0.3996-0.3996z" fill="url(#id10) none"/>
        <circle id="circle472" cx="2.54" cy="-7.62" r="4" fill="url(#id11) none"/>
        <line id="line474" x1="2.54" x2="-.28843" y1="-7.62" y2="-10.448" stroke="#000" stroke-width=".8"/>
      </g>
      <g id="g484" transform="translate(-13.97,45.72)">
        <path id="path478" d="m3.55 0-0.013509 0.3094 0.15654 0.34178-0.070807 0.31939-0.28631 0.2436-0.11852 0.28612 0.030203 0.37471-0.17578 0.27591-0.35236 0.13098-0.20923 0.22833-0.099776 0.36244-0.25954 0.19915-0.37591 0.00257-0.27471 0.143-0.21772 0.30645-0.312 0.098375-0.35412-0.12615-0.30705 0.040424-0.3094 0.21351-0.32683-0.01427-0.28962-0.23966-0.30236-0.067031-0.36377 0.094811-0.30224-0.12519-0.19018-0.32426-0.2612-0.1664-0.37426-0.035323-0.2412-0.22102-0.067807-0.36975-0.18853-0.2457-0.33961-0.1612-0.15106-0.29018 0.062745-0.37065-0.093128-0.29536-0.26399-0.26763-0.042701-0.32435 0.18573-0.32683 0.013509-0.3094-0.15654-0.34178 0.070807-0.31939 0.28631-0.2436 0.11852-0.28612-0.030203-0.37471 0.17578-0.27591 0.35236-0.13098 0.20923-0.22833 0.099776-0.36244 0.25954-0.19915 0.37591-0.00257 0.27471-0.143 0.21772-0.30645 0.312-0.098375 0.35412 0.12615 0.30705-0.040424 0.3094-0.21351 0.32683 0.01427 0.28962 0.23966 0.30236 0.067031 0.36377-0.094811 0.30224 0.12519 0.19018 0.32426 0.2612 0.1664 0.37426 0.035323 0.2412 0.22102 0.067807 0.36975 0.18853 0.2457 0.33961 0.1612 0.15106 0.29018-0.062745 0.37065 0.093128 0.29536 0.26399 0.26763 0.042701 0.32435z" fill="url(#id1) none"/>
        <circle id="circle480" r="3.15" fill="url(#id2) none"/>
        <circle id="circle482" r="2.35" fill="url(#id3) none"/>
      </g>
      <g id="g494" transform="translate(-3.81 45.72)">
        <circle id="circle486" r="2.75" fill="url(#id1) none"/>
        <circle id="circle488" r="2.4" fill="url(#id5) none"/>
        <circle id="circle490" r="1.6" fill="#111"/>
        <path id="path492" d="m1.1 0 0.39933 3.98c0.24958 2.4875-3.2483 2.4875-2.9987 3.6723e-16l0.39933-3.98z" fill="url(#id6) none"/>
      </g>
      <g id="g508" transform="translate(8.89 53.34)">
        <circle id="circle496" cx="2.54" cy="-7.62" r="7.15" fill="url(#id7) none"/>
        <circle id="circle498" cx="2.54" cy="-7.62" r="7.15" fill="url(#id8) none"/>
        <path id="path500" d="m-0.69282-12.07a5.5 5.5 0 0 1 3.8077-1.0203l0.46279 0.32345 0.63684 0.17064 0.56252-0.048716a5.5 5.5 0 0 1 2.7874 2.7874l-0.048716 0.56252 0.17064 0.63684 0.32345 0.46279a5.5 5.5 0 0 1-1.0203 3.8077l-0.51151 0.23907-0.4662 0.4662-0.23907 0.51151a5.5 5.5 0 0 1-3.8077 1.0203l-0.46279-0.32345-0.63684-0.17064-0.56252 0.048716a5.5 5.5 0 0 1-2.7874-2.7874l0.048716-0.56252-0.17064-0.63684-0.32345-0.46279a5.5 5.5 0 0 1 1.0203-3.8077l0.51151-0.23907 0.4662-0.4662z" fill="url(#id9) none"/>
        <path id="path502" d="m-0.25198-11.463a4.75 4.75 0 0 1 3.2885-0.88115l0.39295 0.31276 0.54586 0.14626 0.49668-0.074383a4.75 4.75 0 0 1 2.4073 2.4073l-0.074383 0.49668 0.14626 0.54586 0.31276 0.39295a4.75 4.75 0 0 1-0.88115 3.2885l-0.46733 0.18392-0.3996 0.3996-0.18392 0.46733a4.75 4.75 0 0 1-3.2885 0.88115l-0.39295-0.31276-0.54586-0.14626-0.49668 0.074383a4.75 4.75 0 0 1-2.4073-2.4073l0.074383-0.49668-0.14626-0.54586-0.31276-0.39295a4.75 4.75 0 0 1 0.88115-3.2885l0.46733-0.18392 0.3996-0.3996z" fill="url(#id10) none"/>
        <circle id="circle504" cx="2.54" cy="-7.62" r="4" fill="url(#id11) none"/>
        <line id="line506" x1="2.54" x2="-.28843" y1="-7.62" y2="-10.448" stroke="#000" stroke-width=".8"/>
      </g>
      <g id="g516" transform="translate(-13.97,66.04)">
        <path id="path510" d="m3.55 0-0.013509 0.3094 0.15654 0.34178-0.070807 0.31939-0.28631 0.2436-0.11852 0.28612 0.030203 0.37471-0.17578 0.27591-0.35236 0.13098-0.20923 0.22833-0.099776 0.36244-0.25954 0.19915-0.37591 0.00257-0.27471 0.143-0.21772 0.30645-0.312 0.098375-0.35412-0.12615-0.30705 0.040424-0.3094 0.21351-0.32683-0.01427-0.28962-0.23966-0.30236-0.067031-0.36377 0.094811-0.30224-0.12519-0.19018-0.32426-0.2612-0.1664-0.37426-0.035323-0.2412-0.22102-0.067807-0.36975-0.18853-0.2457-0.33961-0.1612-0.15106-0.29018 0.062745-0.37065-0.093128-0.29536-0.26399-0.26763-0.042701-0.32435 0.18573-0.32683 0.013509-0.3094-0.15654-0.34178 0.070807-0.31939 0.28631-0.2436 0.11852-0.28612-0.030203-0.37471 0.17578-0.27591 0.35236-0.13098 0.20923-0.22833 0.099776-0.36244 0.25954-0.19915 0.37591-0.00257 0.27471-0.143 0.21772-0.30645 0.312-0.098375 0.35412 0.12615 0.30705-0.040424 0.3094-0.21351 0.32683 0.01427 0.28962 0.23966 0.30236 0.067031 0.36377-0.094811 0.30224 0.12519 0.19018 0.32426 0.2612 0.1664 0.37426 0.035323 0.2412 0.22102 0.067807 0.36975 0.18853 0.2457 0.33961 0.1612 0.15106 0.29018-0.062745 0.37065 0.093128 0.29536 0.26399 0.26763 0.042701 0.32435z" fill="url(#id1) none"/>
        <circle id="circle512" r="3.15" fill="url(#id2) none"/>
        <circle id="circle514" r="2.35" fill="url(#id3) none"/>
      </g>
      <g id="g526" transform="translate(-3.81 66.04)">
        <circle id="circle518" r="2.75" fill="url(#id1) none"/>
        <circle id="circle520" r="2.4" fill="url(#id5) none"/>
        <circle id="circle522" r="1.6" fill="#111"/>
        <path id="path524" d="m1.1 0 0.39933 3.98c0.24958 2.4875-3.2483 2.4875-2.9987 3.6723e-16l0.39933-3.98z" fill="url(#id6) none"/>
      </g>
      <g id="g540" transform="translate(8.89 73.66)">
        <circle id="circle528" cx="2.54" cy="-7.62" r="7.15" fill="url(#id7) none"/>
        <circle id="circle530" cx="2.54" cy="-7.62" r="7.15" fill="url(#id8) none"/>
        <path id="path532" d="m-0.69282-12.07a5.5 5.5 0 0 1 3.8077-1.0203l0.46279 0.32345 0.63684 0.17064 0.56252-0.048716a5.5 5.5 0 0 1 2.7874 2.7874l-0.048716 0.56252 0.17064 0.63684 0.32345 0.46279a5.5 5.5 0 0 1-1.0203 3.8077l-0.51151 0.23907-0.4662 0.4662-0.23907 0.51151a5.5 5.5 0 0 1-3.8077 1.0203l-0.46279-0.32345-0.63684-0.17064-0.56252 0.048716a5.5 5.5 0 0 1-2.7874-2.7874l0.048716-0.56252-0.17064-0.63684-0.32345-0.46279a5.5 5.5 0 0 1 1.0203-3.8077l0.51151-0.23907 0.4662-0.4662z" fill="url(#id9) none"/>
        <path id="path534" d="m-0.25198-11.463a4.75 4.75 0 0 1 3.2885-0.88115l0.39295 0.31276 0.54586 0.14626 0.49668-0.074383a4.75 4.75 0 0 1 2.4073 2.4073l-0.074383 0.49668 0.14626 0.54586 0.31276 0.39295a4.75 4.75 0 0 1-0.88115 3.2885l-0.46733 0.18392-0.3996 0.3996-0.18392 0.46733a4.75 4.75 0 0 1-3.2885 0.88115l-0.39295-0.31276-0.54586-0.14626-0.49668 0.074383a4.75 4.75 0 0 1-2.4073-2.4073l0.074383-0.49668-0.14626-0.54586-0.31276-0.39295a4.75 4.75 0 0 1 0.88115-3.2885l0.46733-0.18392 0.3996-0.3996z" fill="url(#id10) none"/>
        <circle id="circle536" cx="2.54" cy="-7.62" r="4" fill="url(#id11) none"/>
        <line id="line538" x1="2.54" x2="-.28843" y1="-7.62" y2="-10.448" stroke="#000" stroke-width=".8"/>
      </g>
      <g id="g548" transform="translate(-13.97,86.36)">
        <path id="path542" d="m3.55 0-0.013509 0.3094 0.15654 0.34178-0.070807 0.31939-0.28631 0.2436-0.11852 0.28612 0.030203 0.37471-0.17578 0.27591-0.35236 0.13098-0.20923 0.22833-0.099776 0.36244-0.25954 0.19915-0.37591 0.00257-0.27471 0.143-0.21772 0.30645-0.312 0.098375-0.35412-0.12615-0.30705 0.040424-0.3094 0.21351-0.32683-0.01427-0.28962-0.23966-0.30236-0.067031-0.36377 0.094811-0.30224-0.12519-0.19018-0.32426-0.2612-0.1664-0.37426-0.035323-0.2412-0.22102-0.067807-0.36975-0.18853-0.2457-0.33961-0.1612-0.15106-0.29018 0.062745-0.37065-0.093128-0.29536-0.26399-0.26763-0.042701-0.32435 0.18573-0.32683 0.013509-0.3094-0.15654-0.34178 0.070807-0.31939 0.28631-0.2436 0.11852-0.28612-0.030203-0.37471 0.17578-0.27591 0.35236-0.13098 0.20923-0.22833 0.099776-0.36244 0.25954-0.19915 0.37591-0.00257 0.27471-0.143 0.21772-0.30645 0.312-0.098375 0.35412 0.12615 0.30705-0.040424 0.3094-0.21351 0.32683 0.01427 0.28962 0.23966 0.30236 0.067031 0.36377-0.094811 0.30224 0.12519 0.19018 0.32426 0.2612 0.1664 0.37426 0.035323 0.2412 0.22102 0.067807 0.36975 0.18853 0.2457 0.33961 0.1612 0.15106 0.29018-0.062745 0.37065 0.093128 0.29536 0.26399 0.26763 0.042701 0.32435z" fill="url(#id1) none"/>
        <circle id="circle544" r="3.15" fill="url(#id2) none"/>
        <circle id="circle546" r="2.35" fill="url(#id3) none"/>
      </g>
      <g id="g558" transform="translate(-3.81 86.36)">
        <circle id="circle550" r="2.75" fill="url(#id1) none"/>
        <circle id="circle552" r="2.4" fill="url(#id5) none"/>
        <circle id="circle554" r="1.6" fill="#111"/>
        <path id="path556" d="m1.1 0 0.39933 3.98c0.24958 2.4875-3.2483 2.4875-2.9987 3.6723e-16l0.39933-3.98z" fill="url(#id6) none"/>
      </g>
      <g id="g566" transform="translate(11.43,86.36)">
        <path id="path560" d="m3.55 0-0.013509 0.3094 0.15654 0.34178-0.070807 0.31939-0.28631 0.2436-0.11852 0.28612 0.030203 0.37471-0.17578 0.27591-0.35236 0.13098-0.20923 0.22833-0.099776 0.36244-0.25954 0.19915-0.37591 0.00257-0.27471 0.143-0.21772 0.30645-0.312 0.098375-0.35412-0.12615-0.30705 0.040424-0.3094 0.21351-0.32683-0.01427-0.28962-0.23966-0.30236-0.067031-0.36377 0.094811-0.30224-0.12519-0.19018-0.32426-0.2612-0.1664-0.37426-0.035323-0.2412-0.22102-0.067807-0.36975-0.18853-0.2457-0.33961-0.1612-0.15106-0.29018 0.062745-0.37065-0.093128-0.29536-0.26399-0.26763-0.042701-0.32435 0.18573-0.32683 0.013509-0.3094-0.15654-0.34178 0.070807-0.31939 0.28631-0.2436 0.11852-0.28612-0.030203-0.37471 0.17578-0.27591 0.35236-0.13098 0.20923-0.22833 0.099776-0.36244 0.25954-0.19915 0.37591-0.00257 0.27471-0.143 0.21772-0.30645 0.312-0.098375 0.35412 0.12615 0.30705-0.040424 0.3094-0.21351 0.32683 0.01427 0.28962 0.23966 0.30236 0.067031 0.36377-0.094811 0.30224 0.12519 0.19018 0.32426 0.2612 0.1664 0.37426 0.035323 0.2412 0.22102 0.067807 0.36975 0.18853 0.2457 0.33961 0.1612 0.15106 0.29018-0.062745 0.37065 0.093128 0.29536 0.26399 0.26763 0.042701 0.32435z" fill="url(#id1) none"/>
        <circle id="circle562" r="3.15" fill="url(#id2) none"/>
        <circle id="circle564" r="2.35" fill="url(#id3) none"/>
      </g>
      <g id="g572" transform="translate(15.24 77.47)">
        <circle id="circle568" cy="1.27" r="1.55" fill="url(#id54) none"/>
        <ellipse id="ellipse570" transform="rotate(20 .51667 .495)" cx=".51667" cy=".495" rx=".775" ry=".51667" fill="#fff" opacity=".8"/>
      </g>
    </g>
  </g>
</svg>
