<?xml version="1.0" encoding="UTF-8"?>
<svg id="svg169" width="40.3mm" height="128.5mm" version="1.1" viewBox="0 0 40.3 128.5" xmlns="http://www.w3.org/2000/svg">
  <rect id="background" width="40.3" height="128.5" fill="#fff"/>
  <g id="outline" fill="none" stroke="#000">
    <line id="line6" y1="-3" y2="3"/>
    <line id="line8" x1="-3" x2="3"/>
    <line id="line10" x1="43.3" x2="37.3"/>
    <line id="line12" x1="40.3" x2="40.3" y1="-3" y2="3"/>
    <line id="line14" y1="131.5" y2="125.5"/>
    <line id="line16" x1="-3" x2="3" y1="128.5" y2="128.5"/>
    <line id="line18" x1="40.3" x2="40.3" y1="131.5" y2="125.5"/>
    <line id="line20" x1="43.3" x2="37.3" y1="128.5" y2="128.5"/>
  </g>
  <g id="stencil" font-family="Ubuntu" font-size="3">
    <path id="path988" d="m15.895 6.375q-0.365 0-0.665-0.12t-0.515-0.35-0.335-0.565q-0.115-0.34-0.115-0.775t0.13-0.77q0.135-0.34 0.36-0.57t0.525-0.35 0.64-0.12q0.215 0 0.385 0.03 0.175 0.03 0.3 0.07 0.13 0.04 0.21 0.08t0.11 0.06l-0.14 0.4q-0.045-0.03-0.13-0.065t-0.195-0.07q-0.105-0.035-0.235-0.055-0.125-0.025-0.255-0.025-0.275 0-0.495 0.095t-0.375 0.275-0.24 0.44q-0.08 0.255-0.08 0.575 0 0.31 0.07 0.565 0.075 0.255 0.22 0.44 0.145 0.18 0.36 0.28 0.22 0.1 0.51 0.1 0.335 0 0.555-0.07t0.33-0.125l0.125 0.4q-0.035 0.025-0.125 0.065-0.09 0.035-0.225 0.07t-0.315 0.06-0.39 0.025z"/>
    <path id="path990" d="m18.255 6.35q-0.43-0.01-0.61-0.185t-0.18-0.545v-3.12l0.465-0.08v3.125q0 0.115 0.02 0.19t0.065 0.12 0.12 0.07q0.075 0.02 0.185 0.035z"/>
    <path id="path992" d="m21.135 5q0 0.31-0.09 0.56t-0.255 0.43q-0.16 0.18-0.385 0.28-0.225 0.095-0.49 0.095t-0.49-0.095q-0.225-0.1-0.39-0.28-0.16-0.18-0.25-0.43t-0.09-0.56q0-0.305 0.09-0.555 0.09-0.255 0.25-0.435 0.165-0.18 0.39-0.275 0.225-0.1 0.49-0.1t0.49 0.1q0.225 0.095 0.385 0.275 0.165 0.18 0.255 0.435 0.09 0.25 0.09 0.555zm-0.485 0q0-0.44-0.2-0.695-0.195-0.26-0.535-0.26t-0.54 0.26q-0.195 0.255-0.195 0.695t0.195 0.7q0.2 0.255 0.54 0.255t0.535-0.255q0.2-0.26 0.2-0.7z"/>
    <path id="path994" d="m22.92 6.36q-0.315 0-0.555-0.1-0.235-0.1-0.4-0.28-0.16-0.18-0.24-0.425-0.08-0.25-0.08-0.55t0.085-0.55q0.09-0.25 0.25-0.43 0.16-0.185 0.39-0.285 0.235-0.105 0.52-0.105 0.175 0 0.35 0.03t0.335 0.095l-0.105 0.395q-0.105-0.05-0.245-0.08-0.135-0.03-0.29-0.03-0.39 0-0.6 0.245-0.205 0.245-0.205 0.715 0 0.21 0.045 0.385 0.05 0.175 0.15 0.3 0.105 0.125 0.265 0.195 0.16 0.065 0.39 0.065 0.185 0 0.335-0.035t0.235-0.075l0.065 0.39q-0.04 0.025-0.115 0.05-0.075 0.02-0.17 0.035-0.095 0.02-0.205 0.03-0.105 0.015-0.205 0.015z"/>
    <path id="path996" d="m25.055 4.87q0.15 0.115 0.315 0.285 0.17 0.17 0.33 0.37 0.165 0.195 0.31 0.4 0.145 0.2 0.245 0.375h-0.545q-0.105-0.175-0.245-0.355-0.135-0.185-0.285-0.35-0.15-0.17-0.305-0.31t-0.295-0.235v1.25h-0.465v-3.8l0.465-0.08v2.37q0.12-0.12 0.265-0.265t0.285-0.295 0.265-0.285q0.125-0.14 0.215-0.245h0.545q-0.115 0.125-0.25 0.275t-0.28 0.305q-0.145 0.15-0.295 0.305-0.145 0.15-0.275 0.285z"/>
    <path id="path25" transform="translate(12.65 119.5) scale(.15)" d="m23.274 0c-12.804 0-23.274 10.47-23.274 23.274 0 12.804 10.47 23.274 23.274 23.274 6.2817 0 11.38-2.5486 15.731-6.2455 1.5387-1.3073 3.0762-2.7877 4.6583-4.3876l-0.0086-5.8693-5.9894 0.0026c-1.4839 1.5057-2.8467 2.8283-4.0804 3.8765-3.5126 2.9845-6.0494 4.2541-10.311 4.2541-8.2813 0-14.905-6.6235-14.905-14.905 0-8.2813 6.6235-14.905 14.905-14.905 4.2612 0 6.7981 1.2697 10.311 4.2541 1.2337 1.0482 2.5965 2.3707 4.0804 3.8765l5.9894 0.0026 0.0086-5.8693c-1.5821-1.5999-3.1196-3.0803-4.6583-4.3876-4.351-3.6969-9.4489-6.2455-15.731-6.2455zm53.451 0c-6.2815 1.0197e-4 -11.379 2.5487-15.73 6.2455-1.6075 1.3659-3.2135 2.9188-4.8712 4.602h12.572c2.4765-1.7176 4.7403-2.4782 8.0292-2.4783h3.82e-4c6.2002 0 11.47 3.7129 13.728 9.0545l-6.0416-0.07531-8.5851-3.0797-28.741 3.81e-4v5.6456h-22.686v6.7186h22.686v5.6456l28.741 3.82e-4 8.5851-3.0797 6.0416-0.07531c-2.2576 5.3415-7.5279 9.0545-13.728 9.0545h-3.82e-4c-3.2889-5.9e-5 -5.5527-0.76071-8.0292-2.4783h-12.572c1.6577 1.6832 3.2637 3.2361 4.8712 4.602 4.3509 3.6968 9.4487 6.2454 15.73 6.2455h3.82e-4c12.804 0 23.274-10.47 23.274-23.274-8e-6 -12.804-10.47-23.274-23.274-23.274zm-59.712 19.295-2.8907 3.9786 2.8907 3.9786 4.6773-1.5197v-4.9178z"/>
  </g>
  <g id="throughholes">
    <circle id="circle75" cx="7.45" cy="3" r="1.7"/>
    <circle id="circle77" cx="7.45" cy="125.5" r="1.7"/>
    <circle id="circle79" cx="32.85" cy="3" r="1.7"/>
    <circle id="circle81" cx="32.85" cy="125.5" r="1.7"/>
    <circle id="circle83" cx="31.9" cy="35.594" r="1.1906"/>
    <circle id="circle85" cx="31.9" cy="11.594" r="1.1906"/>
    <circle id="circle87" cx="8.4" cy="35.594" r="1.1906"/>
    <circle id="circle89" cx="8.4" cy="11.594" r="1.1906"/>
    <rect id="rect91" x="8.2451" y="14.74" width="23.81" height="12.905"/>
    <circle id="circle95" cx="30.31" cy="45.63" r="3.65"/>
    <circle id="circle99" cx="9.99" cy="45.63" r="4.5"/>
    <circle id="circle103" cx="12.53" cy="64.68" r="3.15"/>
    <circle id="circle107" cx="16.34" cy="58.33" r="1.55"/>
    <circle id="circle111" cx="27.77" cy="64.68" r="3.15"/>
    <circle id="circle115" cx="31.58" cy="58.33" r="1.55"/>
    <circle id="circle119" cx="12.53" cy="79.92" r="3.15"/>
    <circle id="circle123" cx="16.34" cy="73.57" r="1.55"/>
    <circle id="circle127" cx="27.77" cy="79.92" r="3.15"/>
    <circle id="circle131" cx="31.58" cy="73.57" r="1.55"/>
    <circle id="circle135" cx="12.53" cy="95.16" r="3.15"/>
    <circle id="circle139" cx="16.34" cy="88.81" r="1.55"/>
    <circle id="circle143" cx="27.77" cy="95.16" r="3.15"/>
    <circle id="circle147" cx="31.58" cy="88.81" r="1.55"/>
    <circle id="circle151" cx="12.53" cy="110.4" r="3.15"/>
    <circle id="circle155" cx="16.34" cy="104.05" r="1.55"/>
    <circle id="circle159" cx="27.77" cy="110.4" r="3.15"/>
    <circle id="circle163" cx="31.58" cy="104.05" r="1.55"/>
  </g>
</svg>
